<?xml version="1.0" encoding="utf-8"?>
<!-- Generator: Adobe Illustrator 21.0.0, SVG Export Plug-In . SVG Version: 6.00 Build 0)  -->
<svg version="1.1" id="Layer_1" xmlns="http://www.w3.org/2000/svg" xmlns:xlink="http://www.w3.org/1999/xlink" x="0px" y="0px" viewBox="0 0 95.5 96" style="enable-background:new 0 0 95.5 96;" xml:space="preserve" height="150px" width="150px">
<style type="text/css">
	.st0{fill:#1cb810;}
</style>
<g>
	<path class="st0" d="M50.2,12.6c0,0.1,0.1,0.2,0.1,0.3c0.8,0.1,1.5,0.1,2.2,0.2C52.9,12.3,57,3,57,2.7c-0.7-0.1-1.4-0.1-2.2-0.2
		c-1.1,2.6-2.1,5.1-3.1,7.7c0,0-0.1,0-0.1,0c-0.7-2.7-1.4-5.4-2.1-8c-0.4,0-0.8-0.1-1.1-0.1c-0.1,0-0.2,0-0.3-0.1
		c-0.3,0-0.5,0-0.8,0c0,0.1,0,0.3,0.1,0.4C48.3,5.8,49.2,9.2,50.2,12.6z"/>
	<path class="st0" d="M91.1,50.8c0-0.9,0-1.8,0-2.6c-0.6,0-1.1,0-1.7,0c0,0.5,0,0.9,0,1.3c0,0.4,0,0.9,0,1.3c-0.9,0-1.7,0-2.5,0
		c0,0.6,0,1.1,0,1.7c0.8,0,1.7,0,2.6,0c0,0.4,0,0.8,0,1.2c0,0.4,0,0.7,0,1.1c0,0.4,0,0.7,0,1.1c0,0.4,0,0.7,0,1.1c0,0.4,0,0.7,0,1.1
		c0.6,0,1.1,0,1.7,0c0-1.9,0-3.7,0-5.6c0.3,0,0.6,0,0.9,0c0.5,0,1,0,1.6,0c0-0.6,0-1.1,0-1.7C92.7,50.8,91.9,50.8,91.1,50.8z"/>
	<path class="st0" d="M65.9,31.6c-1.5,0.1-2.9,0.2-4.4,0.3c-1.1,0.1-2.2,0.1-3.3,0.2c-1.5,0.1-3,0.2-4.4,0.3c-0.8,0-1.5,0.1-2.3,0.1
		c-0.4,0-0.7,0-1.2,0c0.4-4.8,0.9-9.6,1.3-14.3c0,0,0,0-0.1,0c-0.9,2-1.9,4.1-2.8,6.2c-1-2.1-2-4.2-3-6.2c-0.1,0.5-0.1,0.9-0.1,1.3
		c0,0.4,0,0.9,0,1.3c0,0.4,0,0.8,0,1.3c0,0.4,0,0.9,0,1.3c0,0.4,0,0.9,0,1.3c0,0.4,0,0.9,0,1.3c0,0.4,0,0.9,0,1.3c0,0.4,0,0.9,0,1.3
		c0,0.4,0,0.8,0,1.3c0,0.4,0,0.9,0,1.3c0,0.4,0,0.9,0,1.3c-1,0-1.9-0.1-2.8-0.1c-0.9,0-1.8-0.1-2.7-0.1c-0.9,0-1.8-0.1-2.7-0.1
		c-0.9,0-1.8-0.1-2.7-0.1c-0.9,0-1.8-0.1-2.7-0.1c-0.9,0-1.8-0.1-2.7-0.1c0,0,0,0.1,0,0.1c2.1,1,4.1,2,6.3,3
		c-0.6,0.3-1.1,0.5-1.6,0.8c-0.5,0.3-1,0.5-1.5,0.8c-0.5,0.3-1,0.5-1.5,0.8c-0.5,0.2-1,0.5-1.4,0.8c2.6-0.2,5.3-0.4,7.9-0.6
		c2.1-0.2,7.6-0.7,8-0.6c-0.7,4.6-1.3,9.2-2,13.9c0,0,0,0,0.1,0c1.2-1.9,2.4-3.8,3.6-5.7c0.5,1,1,1.9,1.5,2.9c0.5,0.9,1,1.9,1.4,2.8
		c0,0,0.1,0,0.1,0c-0.1-4.5-0.1-9.1-0.2-13.6c0.4,0,0.8,0,1.2,0c1.3,0.1,2.6,0.1,3.9,0.2c0.9,0,1.8,0.1,2.7,0.1
		c1.8,0.1,3.6,0.2,5.4,0.3c1,0,2,0.1,3.1,0.1c0.3,0,0.5,0,0.8,0c-0.5-0.3-1-0.5-1.5-0.7c-0.5-0.2-1-0.5-1.5-0.7
		c-0.5-0.2-1-0.5-1.6-0.7c-0.5-0.2-1-0.4-1.6-0.7c2.3-1,4.5-2,6.7-3C67,31.5,66.4,31.5,65.9,31.6z M48.1,36.4
		c-0.9,0-1.6-0.7-1.6-1.6c0-0.9,0.7-1.6,1.6-1.6c0.9,0,1.6,0.7,1.6,1.6C49.7,35.7,49,36.4,48.1,36.4z"/>
	<path class="st0" d="M18.9,52.7c0.6,2.2,1.9,3.9,4,4.8c0,0,0.1,0,0.1,0.1c0,0.6,0,1.2,0,1.8c-0.1,1.5-0.1,2.9-0.2,4.4
		c0,1.1-0.1,2.1-0.1,3.2c-0.1,1.6-0.1,3.2-0.2,4.8c0,0.4,0.2,0.7,0.6,0.9c0.6,0.2,1.1,0.2,1.7,0c0.4-0.2,0.6-0.5,0.6-0.9
		c0.1-1.2,0.1-2.3,0.2-3.5c0-0.4,0.1-0.9,0.1-1.3c0-0.4,0.3-0.7,0.7-0.9c0.4-0.2,0.8-0.2,1.2-0.2c0.8,0.1,1.2,0.5,1.2,1.4
		c0,1.6,0,3.1,0,4.7c0,0.4,0.2,0.7,0.6,0.9c0.5,0.2,1.1,0.3,1.6,0.1c0.5-0.1,0.7-0.4,0.7-0.9c0.1-1.5,0.2-3,0.3-4.6
		c0.1-1.6,0.2-3.2,0.3-4.9c0.1-1.5,0.2-2.9,0.3-4.4c0-0.2,0-0.4,0.1-0.7c0.1,0,0.2-0.1,0.2-0.1c3.5-1.1,5.4-4.6,5-7.7
		c-0.2-1.4-0.7-2.6-1.6-3.6c-0.3-0.3-0.6-0.5-1-0.8c-0.2-0.1-0.4-0.2-0.6-0.2c-0.3-0.1-0.5,0-0.6,0.3c-0.1,0.1-0.1,0.3-0.1,0.4
		c-0.1,0.5,0,1,0.1,1.4c0.2,0.7,0.3,1.4,0.3,2.1c-0.1,2-1,3.5-2.7,4.4c-1.7,1-3.6,1.1-5.5,0.5c-1.7-0.5-2.9-1.6-3.5-3.3
		c-0.4-1.1-0.4-2.2-0.2-3.3c0.1-0.6,0.3-1.3,0.5-1.9c0.1-0.4,0.2-0.8,0.1-1.1c-0.1-0.5-0.3-0.7-0.8-0.6c-0.3,0.1-0.5,0.2-0.7,0.3
		c-0.6,0.4-1.1,0.9-1.6,1.4C18.7,48,18.3,50.3,18.9,52.7z"/>
	<path class="st0" d="M52.8,72c1.3,0,2.5,0.2,3.8,0.4c2.1,0.4,4,1.2,5.9,2.1c0.2,0.1,0.4,0.1,0.6,0c0.8-0.4,1.6-0.8,2.4-1.1
		c2.2-0.9,4.5-1.5,6.8-1.7c0.3,0,0.7-0.1,1-0.1c0.2-0.7,0.4-1.4,0.6-2c0-0.2,0.1-0.3,0.2-0.4c0.1-0.3,0.1-0.6,0.2-0.8
		c1.1-3.8,2.3-7.6,3.4-11.4c0-0.1,0.1-0.2,0.1-0.4c-0.1,0-0.2-0.1-0.2-0.1c-1.7-0.5-3.4-0.8-5.1-0.9c-1.1-0.1-2.2,0-3.3,0.1
		c-1.8,0.2-3.6,0.7-5.3,1.5c-0.2,0.1-0.4,0.1-0.6,0c-0.8-0.4-1.5-0.7-2.3-1c-1.8-0.7-3.7-1.1-5.6-1.2c-1.4-0.1-2.8,0.1-4.2,0.6
		c-0.6,0.2-1.1,0.4-1.7,0.6c1,5.3,1.9,10.6,2.9,15.9C52.3,72,52.6,72,52.8,72z M63.7,71.1c0.1-0.4,0.1-0.7,0.1-1.1
		c0-0.4,0-0.7,0-1.1c0-0.2,0-0.4,0-0.6c0.2,0,0.3-0.1,0.4-0.1c0-0.3-0.1-0.5-0.1-0.7c-0.1,0-0.2,0-0.3,0c0-0.5,0.1-1.1,0.1-1.6
		c0.3-0.1,0.6-0.1,0.9-0.2c0-0.2-0.1-0.5-0.1-0.8c-0.2,0-0.5,0-0.7,0.1c0-0.2,0-0.5,0-0.7c0-0.2,0-0.5,0-0.7c0-0.2,0.1-0.3,0.3-0.3
		c0.3,0,0.6-0.1,1-0.2c0-0.3-0.1-0.5-0.1-0.8c-0.4,0-0.7,0.1-1.1,0.1c0-0.5,0-1,0.1-1.5c0.5-0.1,1-0.2,1.5-0.2
		c0-0.3-0.1-0.5-0.1-0.8c-0.5,0-0.9,0.1-1.3,0.1c0-0.4,0-0.7,0-1.1c3.7-1.6,7.4-2,11.4-1.1c-0.1,0.2-0.1,0.4-0.2,0.5
		c-0.4,0.1-0.8,0.1-1.3,0.2c0,0.3,0.1,0.5,0.1,0.8c0.3,0,0.6-0.1,0.9-0.1c-0.1,0.5-0.3,0.9-0.4,1.3c0,0.1-0.1,0.1-0.2,0.1
		c-0.3,0.1-0.5,0.1-0.8,0.1c0,0.3,0.1,0.5,0.1,0.8c0.2,0,0.4,0,0.6-0.1c0,0.2-0.1,0.3-0.1,0.4c-0.1,0.3-0.2,0.7-0.3,1
		c-0.1,0.3-0.2,0.4-0.4,0.4c-0.1,0-0.2,0-0.3,0.1c0,0.2,0,0.5,0.1,0.7c0,0.1,0.2,0.1,0.3,0.2c-0.2,0.6-0.3,1.1-0.5,1.7
		c0,0.1-0.2,0.2-0.3,0.3c0,0,0,0.1,0,0.2c0,0.3,0,0.6-0.1,0.8c-0.3,0.8-0.5,1.6-0.7,2.5c-0.1,0.2-0.2,0.3-0.4,0.4
		c-2.6,0.3-5.1,1-7.4,2c-0.2,0.1-0.3,0.1-0.5,0.2c0-0.1,0-0.2,0-0.3C63.7,71.7,63.6,71.3,63.7,71.1z M52,60.5
		c-0.2,0-0.3-0.1-0.3-0.3c-0.1-0.4-0.1-0.7-0.2-1.1c0.2,0,0.4,0,0.6,0c0.2-0.2,0.1-0.5,0.2-0.8c-0.3-0.1-0.6-0.1-1-0.2
		c-0.1-0.3-0.1-0.6-0.2-0.9c0.5-0.2,0.9-0.3,1.4-0.4c1.9-0.4,3.7-0.2,5.6,0.2c1.5,0.4,2.9,0.9,4.3,1.6c0,0,0.1,0.1,0.1,0.1
		c0,0.4,0,0.7,0,1.1c-0.6,0-1.1-0.2-1.6-0.2c0,0.2-0.1,0.5-0.1,0.8c0.6,0.2,1.1,0.2,1.7,0.3c0,0.5,0,1-0.1,1.5
		c-0.2,0-0.4-0.1-0.6-0.1c-0.2,0-0.3-0.1-0.6-0.1c0,0.3-0.1,0.5-0.1,0.8c0.4,0.1,0.8,0.2,1.3,0.2c0,0.5-0.1,1.1-0.1,1.6
		c-0.2,0-0.4,0-0.6,0c0,0.3-0.1,0.5-0.1,0.8c0.2,0.1,0.4,0.1,0.6,0.1c0.1,0.3-0.2,6.5-0.3,6.9c-1.3-0.6-2.7-1.1-4.1-1.4
		c-1.4-0.4-2.8-0.6-4.3-0.7c-0.1-0.4-0.1-0.7-0.2-1.1c0.2,0,0.4,0,0.7,0c0-0.3,0.1-0.5,0.1-0.8c-0.3,0-0.5-0.1-0.8-0.1
		c-0.1,0-0.2-0.1-0.2-0.2c-0.1-0.5-0.2-1-0.3-1.5c0.2,0,0.4,0,0.7,0c0-0.2,0.1-0.5,0.1-0.8c-0.3,0-0.5-0.1-0.7-0.1
		c-0.1,0-0.2-0.1-0.2-0.2c-0.1-0.6-0.2-1.1-0.3-1.8c0.2,0,0.4,0,0.7,0.1c0-0.3,0.1-0.5,0.1-0.8c-0.3-0.1-0.6-0.1-0.9-0.2
		c-0.1-0.6-0.2-1.1-0.3-1.7c0.2,0,0.4,0,0.7,0.1c0-0.3,0.1-0.5,0.1-0.8C52.4,60.5,52.2,60.5,52,60.5z"/>
	<path class="st0" d="M71.7,21.8c1-1.1,2-2.2,3.1-3.3c0.1,0.1,0.3,0.2,0.4,0.3c0.8,0.6,1,1.4,0.8,2.4c-0.2,1.2-0.4,2.4-0.6,3.7
		c0,0.2,0,0.3,0.2,0.5c0.5,0.4,0.9,0.9,1.4,1.3c0.1,0.1,0.2,0.1,0.2,0.2c0-0.1,0.1-0.1,0.1-0.2c0.2-0.9,0.4-1.8,0.5-2.7
		c0.2-1,0.3-1.9,0-2.9c0,0,0-0.1,0-0.1c0.2,0.1,0.4,0.3,0.7,0.4c0.5,0.2,1,0.4,1.6,0.3c0.9-0.1,1.6-0.6,2.1-1.3c0.7-1,0.8-2.3,0-3.3
		c-0.4-0.4-0.8-0.9-1.2-1.3c-1.1-1-2.2-2-3.2-3c-0.1-0.1-0.2-0.1-0.2-0.2c-2.4,2.6-4.8,5.2-7.3,7.8C70.7,20.9,71.1,21.3,71.7,21.8z
		 M77.8,15.3c0.1,0.1,0.1,0.1,0.2,0.1c0.7,0.6,1.4,1.3,2.1,2c0.3,0.3,0.5,0.6,0.5,1.1c0,0.6-0.4,0.9-0.8,1.2
		c-0.4,0.2-0.9,0.2-1.3-0.1c-0.4-0.3-0.8-0.7-1.2-1c-0.4-0.4-0.8-0.8-1.3-1.2C76.5,16.6,77.1,16,77.8,15.3z"/>
	<path class="st0" d="M68.6,19.1c0.3-0.5,0.5-1,0.8-1.6c-1.8-1-3.5-1.9-5.3-2.8c0.5-0.9,0.9-1.7,1.4-2.6c1.6,0.8,3.2,1.7,4.8,2.5
		c0.3-0.5,0.6-1,0.8-1.6c-1.6-0.9-3.2-1.7-4.8-2.5c0.4-0.7,0.8-1.4,1.1-2.1c1.7,0.9,3.4,1.8,5.1,2.7c0.3-0.5,0.6-1,0.8-1.6
		c-2.4-1.2-4.7-2.5-7-3.7c-1.7,3.2-3.3,6.3-5,9.5C63.9,16.6,66.2,17.8,68.6,19.1z"/>
	<path class="st0" d="M7.4,36.7c0.7,0,1.4-0.3,2-0.8c0.4-0.4,0.7-0.8,1-1.2c0.4-0.5,0.7-1,1.1-1.5c0.1-0.2,0.3-0.4,0.5-0.5
		c0.4-0.3,0.9-0.3,1.3,0c0.4,0.3,0.5,0.7,0.6,1.1c0,0.5-0.1,1-0.4,1.5c-0.4,0.9-1.1,1.3-2.1,1.2c-0.2,0-0.4,0-0.6,0
		c-0.2,0.7-0.4,1.3-0.5,2c0.5,0.2,0.9,0.2,1.3,0.2c1.2,0,2.1-0.5,2.8-1.5c0.6-0.8,0.9-1.7,1.1-2.7c0.1-0.5,0.2-1.1,0.1-1.6
		c-0.2-1.2-0.9-2-2.1-2.5c-1.2-0.4-2.2-0.2-3.2,0.6c-0.3,0.2-0.5,0.5-0.7,0.8c-0.4,0.5-0.8,1.1-1.2,1.6c-0.3,0.3-0.6,0.7-0.9,1
		c-0.3,0.2-0.6,0.3-0.9,0.1c-0.3-0.1-0.5-0.4-0.5-0.8c-0.1-0.7,0.2-1.4,0.5-2c0.3-0.5,0.7-0.7,1.3-0.7c0.2,0,0.3,0,0.5,0
		c0.2-0.6,0.4-1.3,0.7-2c-0.1,0-0.2-0.1-0.3-0.1c-1.3-0.3-2.5,0.1-3.4,1.3c-0.6,0.8-0.9,1.7-1.1,2.6c-0.1,0.5-0.1,1,0,1.6
		C4.9,35.6,5.8,36.7,7.4,36.7z"/>
	<path class="st0" d="M87.6,35.1c-0.1-0.8-0.2-1.6-0.3-2.4c-0.1-0.5-0.2-1,0-1.5c0.1-0.6,0.8-0.9,1.3-0.5c0.1,0.1,0.2,0.2,0.3,0.3
		c0.4,0.5,0.7,1,0.8,1.7c0.1,0.6-0.1,1.1-0.6,1.5c-0.1,0.1-0.2,0.2-0.3,0.2c0.3,0.6,0.6,1.2,0.9,1.9c1.1-0.6,1.8-1.4,1.8-2.7
		c0-1.6-0.6-3-1.6-4.1c-0.1-0.1-0.2-0.2-0.3-0.3c-1.6-1.3-4-0.4-4.5,1.6c-0.1,0.6-0.1,1.3,0,1.9c0.1,0.6,0.2,1.1,0.2,1.7
		c0,0.4,0.1,0.8,0,1.2c-0.1,0.5-0.5,0.9-1.1,0.9c-0.5,0-0.9-0.2-1.2-0.5c-0.3-0.3-0.5-0.7-0.6-1.1c-0.4-1.1-0.2-1.9,0.7-2.6
		c0.1-0.1,0.2-0.2,0.3-0.3c-0.3-0.6-0.6-1.2-1-1.8c-0.6,0.3-1.1,0.7-1.5,1.2c-0.4,0.6-0.7,1.2-0.7,1.9c0,1.7,0.6,3.2,1.8,4.4
		c0.7,0.7,1.6,1,2.7,0.8c1.3-0.2,2.3-1.1,2.6-2.3C87.6,35.7,87.7,35.4,87.6,35.1z"/>
	<path class="st0" d="M38.8,13.9c0.1,0,0.2-0.1,0.2-0.3c0.1-0.7,0.3-1.4,0.4-2c0-0.2,0.1-0.3,0.3-0.3c0.8-0.1,1.7-0.2,2.5-0.3
		c0.5-0.1,1-0.1,1.5-0.2c0.4,0.8,0.8,1.5,1.3,2.3c0.8-0.1,1.5-0.2,2.3-0.3c-1.9-3.4-3.8-6.7-5.7-10c-0.8,0.1-1.5,0.2-2.2,0.3
		c-0.9,3.7-1.7,7.4-2.6,11.1c0.1,0,0.2,0,0.2,0C37.5,14.1,38.2,14,38.8,13.9z M40.8,5.4C40.8,5.4,40.8,5.4,40.8,5.4
		c0.7,1.2,1.4,2.4,2,3.6c-0.3,0.1-2.4,0.5-2.9,0.4C40.2,8.1,40.5,6.7,40.8,5.4z"/>
	<path class="st0" d="M28,12.3c0.3,0.1,0.4,0.3,0.3,0.6c-0.1,0.9-0.1,1.9-0.2,2.8c-0.1,0.9-0.1,1.8-0.2,2.7c0,0.2,0,0.4,0,0.7
		c0.1-0.1,0.2-0.1,0.3-0.2c0.5-0.3,1-0.6,1.5-0.8c0.2-0.1,0.3-0.3,0.3-0.6c0.1-1.2,0.2-2.5,0.2-3.7c0-0.1,0-0.2,0.1-0.3
		c0.2,0.1,0.3,0.1,0.4,0.2c1.1,0.6,2.2,1.2,3.2,1.7c0.2,0.1,0.3,0.1,0.5,0c0.6-0.3,1.2-0.6,1.7-1c0.1,0,0.1-0.1,0.2-0.2
		c-0.1-0.1-0.2-0.1-0.4-0.2c-0.6-0.3-1.2-0.6-1.8-0.9c-1.1-0.6-2.2-1.1-3.3-1.7c-0.3-0.2-0.3-0.2-0.3-0.5c0-0.5,0.1-0.9,0.1-1.4
		c0.1-1.1,0.2-2.2,0.2-3.4c0-0.3,0-0.7,0-1c0,0-0.1,0-0.1,0c-0.6,0.3-1.2,0.7-1.8,1c-0.2,0.1-0.2,0.2-0.2,0.4c0,1-0.1,1.9-0.1,2.9
		c0,0.3,0,0.5-0.1,0.8c-0.2-0.1-0.3-0.1-0.4-0.2c-1-0.5-1.9-1.1-2.9-1.6c-0.1-0.1-0.2-0.2-0.4-0.1c-0.7,0.4-1.3,0.7-2,1.1
		c0.2,0.1,0.3,0.2,0.4,0.2C25,10.7,26.5,11.5,28,12.3z"/>
	<path class="st0" d="M24.9,48.6c0,2.1,1.7,3.7,3.7,3.7c2.2,0,3.7-1.9,3.7-3.7c0-1.9-1.5-3.7-3.7-3.7C26.5,44.9,24.9,46.5,24.9,48.6
		z"/>
	<path class="st0" d="M67.1,81.2c0.5,0.9,0.9,1.7,1.4,2.6c-0.9,0.5-1.8,0.9-2.6,1.4c-0.5-0.9-0.9-1.7-1.4-2.6
		c-0.4,0.2-0.7,0.4-1.1,0.6c-0.3,0.2-0.7,0.3-1.1,0.5c-1.4,0.5-2.7,0.9-4.1,1.4c-0.1,0-0.2,0.1-0.4,0.1c0.1,0.4,0.3,0.7,0.4,1.1
		c0.7-0.2,1.4-0.5,2.1-0.7c0.7,2,1.3,3.9,2,5.8c0.5-0.1,0.9-0.3,1.4-0.5c-0.7-2-1.3-3.9-2-5.8c0.7-0.2,1.4-0.5,2.1-0.7
		c1,1.8,1.9,3.6,2.9,5.4c0.4-0.2,0.8-0.5,1.3-0.7c-0.5-1-1-1.9-1.5-2.9c0.9-0.5,1.8-0.9,2.6-1.4c0.5,1,1,1.9,1.5,2.9
		c0.4-0.2,0.9-0.5,1.3-0.7c-1.2-2.2-2.3-4.3-3.5-6.5C68,80.8,67.6,81,67.1,81.2z"/>
	<path class="st0" d="M11.9,22.8c2.4,1.8,4.8,3.5,7.2,5.2c0.4-0.6,0.8-1.1,1.2-1.7c-2.4-1.8-4.8-3.5-7.2-5.3
		c0.6-0.9,1.3-1.7,1.9-2.6c-0.5-0.4-1-0.7-1.4-1c-1.7,2.3-3.3,4.6-5,6.9c0.5,0.4,0.9,0.7,1.4,1C10.7,24.5,11.3,23.7,11.9,22.8z"/>
	<path class="st0" d="M47.9,91.7c-0.2-0.4-0.5-0.7-0.8-1c-0.1,0-0.1-0.1-0.2-0.2c0.2,0,0.3-0.1,0.5-0.1c0.9-0.2,1.4-0.7,1.6-1.7
		c0.1-0.9-0.2-2-1.4-2.2c-0.2-0.1-0.5-0.1-0.7-0.1c-1-0.1-2-0.2-3-0.3c-0.2,0-0.5,0-0.7,0c-0.2,2.4-0.4,4.9-0.6,7.3
		c0.5,0,0.9,0.1,1.4,0.1c0.1-1,0.2-2,0.3-3.1c0.7,0,1.4,0.1,1.7,0.8c0.1,0.2,0.2,0.3,0.3,0.5c0.3,0.6,0.7,1.2,1,1.9
		c0.1,0.1,0.2,0.2,0.2,0.2c0.5,0.1,1,0.1,1.6,0.1c0-0.1,0-0.1-0.1-0.2C48.6,93.1,48.2,92.4,47.9,91.7z M44.3,89.3
		c0.1-0.7,0.1-1.3,0.2-1.9c0.2,0,0.4,0,0.6,0c0.5,0,0.9,0.1,1.4,0.1c0.1,0,0.2,0,0.3,0c0.5,0.1,0.7,0.5,0.7,1
		c-0.1,0.5-0.4,0.8-0.9,0.8C45.8,89.4,45.1,89.4,44.3,89.3z"/>
	<path class="st0" d="M81.5,76.4c-0.5-0.1-1.1-0.1-1.6,0c-0.1,0-0.2,0-0.3,0c0.1-0.1,0.1-0.2,0.2-0.3c0.7-1.4-0.1-2.5-1-2.9
		c-0.6-0.3-1.3-0.3-1.8,0.2c-0.3,0.2-0.6,0.5-0.8,0.7c-0.8,0.8-1.5,1.6-2.3,2.4c0,0-0.1,0.1-0.1,0.2c1.8,1.7,3.6,3.3,5.4,5
		c0.3-0.4,0.7-0.7,1-1.1c-0.8-0.7-1.5-1.4-2.3-2.1c0.2-0.2,0.3-0.3,0.5-0.5c0.3-0.3,0.6-0.4,1-0.4c0.3,0,0.5,0.1,0.8,0.1
		c0.7,0.1,1.4,0.2,2,0.3c0.1,0,0.3,0,0.4-0.1c0.4-0.4,0.7-0.7,1.1-1.1c-0.1,0-0.2-0.1-0.3-0.1C82.7,76.6,82.1,76.5,81.5,76.4z
		 M78.6,75.9c0,0.1-0.1,0.1-0.1,0.2c-0.5,0.5-0.9,1-1.4,1.6c-0.1-0.1-0.2-0.1-0.2-0.2c-0.4-0.4-0.8-0.7-1.2-1.1
		c0.1-0.1,0.1-0.2,0.2-0.2c0.4-0.5,0.9-0.9,1.3-1.4c0.4-0.4,1-0.4,1.4,0.1C78.8,75.2,78.9,75.6,78.6,75.9z"/>
	<path class="st0" d="M39.2,85.2c-1.9-0.4-3.4,0.4-4,2.2c-0.2,0.5-0.3,1-0.4,1.6c-0.1,1.3,0.4,2.7,1.7,3.3c0.6,0.3,1.3,0.5,1.8,0.5
		c1.4,0,2.4-0.6,3-1.7c0.5-0.8,0.7-1.8,0.7-2.7c0-0.8-0.3-1.5-0.9-2.1C40.7,85.6,40,85.3,39.2,85.2z M40.1,90.4
		c-0.3,0.5-0.7,0.9-1.3,1.1c-1.2,0.3-2.4-0.6-2.5-1.9c0-0.1,0-0.2,0-0.3c0-0.7,0.2-1.3,0.5-1.9c0.7-1.3,2.1-1.3,3.1-0.7
		c0.6,0.4,0.8,1,0.7,1.7C40.6,89.1,40.4,89.8,40.1,90.4z"/>
	<path class="st0" d="M56.3,85.7c-0.5-0.1-1-0.1-1.6,0c-1.6,0.2-2.8,1.3-2.9,2.8c-0.1,1,0,2,0.5,2.9c0.6,1.2,1.6,1.8,3,1.8
		c0.5,0,1-0.1,1.5-0.2c1.3-0.5,2.1-1.4,2.2-2.7c0.1-1.1-0.1-2.1-0.6-3C58,86.4,57.3,85.9,56.3,85.7z M57.5,90.5
		c-0.2,0.9-0.8,1.4-1.7,1.5c-0.8,0.1-1.5-0.2-1.9-0.9c-0.5-0.8-0.7-1.8-0.5-2.7c0.2-0.8,0.8-1.4,1.8-1.5c0.8-0.1,1.5,0.2,1.9,0.9
		c0.4,0.6,0.5,1.3,0.5,2C57.5,90,57.5,90.3,57.5,90.5z"/>
	<path class="st0" d="M6.2,48.2c-0.4-0.1-1.4-0.1-1.7,0c0,0.8,0,1.7,0,2.6c-0.9,0-1.7,0-2.5,0c0,0.6,0,1.1,0,1.7c0.8,0,1.7,0,2.5,0
		c0,1.9,0,3.7,0,5.5c0.6,0,1.1,0,1.7,0c0-1.9,0-3.7,0-5.6c0.9,0,1.7,0,2.5,0c0-0.6,0-1.1,0-1.7c-0.9,0-1.7,0-2.5,0
		C6.2,49.9,6.2,49,6.2,48.2z"/>
	<path class="st0" d="M74.2,84.1c-0.4-0.6-0.9-1.1-1.3-1.6c1-0.8,1.9-1.6,2.9-2.4c-0.3-0.3-0.5-0.6-0.8-0.9c-1,0.8-1.9,1.6-2.9,2.4
		c-0.4-0.5-0.7-0.9-1.1-1.3c1.1-0.9,2.1-1.7,3.1-2.5c-0.3-0.3-0.5-0.6-0.8-0.9c-1.4,1.2-2.8,2.3-4.3,3.4c1.6,1.9,3.1,3.8,4.6,5.7
		c0.8-0.6,4.2-3.3,4.3-3.6c-0.2-0.3-0.5-0.6-0.7-0.9C76.3,82.4,75.2,83.3,74.2,84.1z"/>
	<path class="st0" d="M28.4,82.4c0.2-0.3,0.5-0.6,0.7-1c-1.5-1.1-2.9-2.1-4.4-3.2c-1.5,2-2.9,4-4.4,6c1.5,1.1,3,2.2,4.5,3.3
		c0.2-0.3,0.5-0.6,0.7-1c-1.1-0.8-2.2-1.6-3.4-2.4c0.4-0.6,0.8-1.1,1.2-1.7c1,0.7,2,1.5,3,2.2c0.3-0.3,0.5-0.6,0.7-1
		c-1-0.7-2-1.5-3-2.2c0.3-0.5,0.7-0.9,1-1.4C26.2,80.8,27.3,81.6,28.4,82.4z"/>
	<path class="st0" d="M84.2,69.8c-0.4,0-0.8,0.2-1.1,0.4c-0.4,0.3-0.8,0.7-1.3,1c-0.3,0.2-0.5,0.4-0.8,0.6c-0.2,0.1-0.5,0.2-0.7,0
		c-0.2-0.2-0.3-0.4-0.2-0.7c0.1-0.5,0.4-0.9,0.8-1.2c0.3-0.2,0.6-0.3,0.9-0.2c0.1,0,0.2,0.1,0.4,0.1c0.3-0.4,0.5-0.8,0.8-1.2
		c-0.8-0.5-1.5-0.5-2.2-0.1c-1,0.6-1.6,1.5-1.8,2.6c-0.3,1.6,1.2,2.5,2.3,2.3c0.5-0.1,0.9-0.4,1.3-0.7c0.4-0.3,0.8-0.6,1.2-1
		c0.1-0.1,0.3-0.2,0.4-0.3c0.4-0.2,0.8-0.1,1,0.3c0.1,0.2,0.1,0.4,0.1,0.6c0,0.6-0.6,1.5-1.2,1.6C83.9,74,83.6,74,83.4,74
		c-0.2,0-0.5-0.1-0.7-0.2c-0.2,0.4-0.4,0.8-0.7,1.2c0.9,0.6,2,0.6,2.8,0c0.8-0.6,1.4-1.4,1.6-2.4C87,71,85.5,69.7,84.2,69.8z"/>
	<path class="st0" d="M59.4,14.6c1-3.4,2-6.8,2.9-10.3c-0.7-0.2-1.3-0.4-2-0.6c-0.3,1.2-0.7,2.3-1,3.5c-0.3,1.1-0.7,2.3-1,3.4
		c-0.3,1.1-0.7,2.3-1,3.4c0.6,0.2,1.2,0.4,1.8,0.5C59.2,14.6,59.3,14.6,59.4,14.6z"/>
	<path class="st0" d="M23.3,77c-0.1,0-0.1,0-0.1,0c-1.6,0.8-3.2,1.7-4.9,2.5c0,0-0.1,0-0.1,0c0,0,0,0,0,0c0,0,0,0,0,0
		c0.8-1.7,1.6-3.4,2.4-5.1c-0.4-0.4-0.7-0.8-1.1-1.2c-1.1,2.4-2.2,4.8-3.2,7.2c0.4,0.4,0.8,0.7,1.1,1.1c2.4-1.2,4.7-2.3,7-3.4
		C23.9,77.7,23.6,77.4,23.3,77z"/>
	<path class="st0" d="M32.2,84.2c1.1,0.5,2.2,0.9,3.3,1.3c0.2-0.4,0.3-0.7,0.5-1.1c-1.6-0.6-3.1-1.3-4.7-1.9
		c-0.9,2.3-1.9,4.6-2.8,6.9c0.5,0.2,0.9,0.4,1.3,0.5c0.4-1,0.8-1.9,1.2-2.9c1,0.4,1.9,0.8,2.9,1.2c0.2-0.4,0.3-0.7,0.5-1.1
		c-1-0.4-1.9-0.8-2.9-1.2C31.8,85.3,32,84.8,32.2,84.2z"/>
	<path class="st0" d="M10.8,71.9c1.7-1.1,3.5-2.2,5.2-3.2c-0.3-0.4-0.5-0.8-0.8-1.2c-2.1,1.3-4.1,2.6-6.2,3.9
		c0.9,1.5,1.8,2.9,2.8,4.4c0.4-0.2,0.7-0.4,1-0.6C12.1,74,11.5,72.9,10.8,71.9z"/>
	<path class="st0" d="M18.4,71.9c-2,1.5-3.9,3-5.8,4.6c0.3,0.4,0.6,0.8,0.9,1.1c2-1.5,3.9-3,5.8-4.6C19,72.7,18.7,72.3,18.4,71.9z"
		/>
	<path class="st0" d="M84.9,25.4c0.9-0.3,1.6-0.9,2.4-1.5c-0.4-0.6-0.8-1.1-1.1-1.7c-0.6,0.4-1.1,0.8-1.7,1.1
		c0.2,0.3,0.3,0.5,0.5,0.8c-0.7,0.5-1.3,0.4-1.9-0.1c-0.2,0.3-0.3,0.5-0.5,0.8C83.3,25.5,84.1,25.7,84.9,25.4z"/>
	<path class="st0" d="M23.9,22.6c-0.5-0.5-1-0.9-1.4-1.4c-0.5,0.5-0.9,1-1.4,1.5c0.5,0.5,1,0.9,1.5,1.4C23,23.6,23.4,23.1,23.9,22.6
		z"/>
	<path class="st0" d="M58.8,66.7c-0.6-0.1-1.1-0.2-1.7-0.2c0,0.3-0.1,0.5-0.1,0.8c0.6,0.1,1.1,0.2,1.7,0.2
		C58.7,67.2,58.7,67,58.8,66.7z"/>
	<path class="st0" d="M57.4,69.8c0.6,0.1,1.1,0.2,1.7,0.3c0-0.3,0.1-0.5,0.1-0.8c-0.6-0.1-1.1-0.2-1.7-0.2
		C57.5,69.3,57.5,69.5,57.4,69.8z"/>
	<path class="st0" d="M59.9,59.4c-0.6-0.1-1.1-0.2-1.7-0.3c0,0.3-0.1,0.5-0.1,0.8c0.6,0.1,1.1,0.2,1.7,0.2
		C59.9,60,59.9,59.7,59.9,59.4z"/>
	<path class="st0" d="M60.1,69.4c0,0.3-0.1,0.5-0.1,0.8c0.6,0.1,1.1,0.2,1.7,0.2c0-0.3,0.1-0.5,0.1-0.8c-0.3,0-0.5-0.1-0.8-0.1
		C60.7,69.5,60.4,69.4,60.1,69.4z"/>
	<path class="st0" d="M55.7,63.6c-0.6-0.1-1.1-0.2-1.7-0.3c0,0.3-0.1,0.5-0.1,0.8c0.6,0.1,1.1,0.2,1.7,0.3
		C55.6,64.1,55.6,63.9,55.7,63.6z"/>
	<path class="st0" d="M58.6,62.4c0.6,0.1,1.1,0.2,1.7,0.2c0-0.3,0.1-0.5,0.1-0.8c-0.6-0.1-1.1-0.2-1.7-0.3
		C58.6,61.9,58.6,62.1,58.6,62.4z"/>
	<path class="st0" d="M56.5,64.5c0.6,0.1,1.1,0.2,1.7,0.2c0-0.3,0.1-0.5,0.1-0.8c-0.6-0.1-1.1-0.2-1.7-0.2
		C56.5,64,56.5,64.3,56.5,64.5z"/>
	<path class="st0" d="M54.8,58.7c-0.6-0.1-1.1-0.2-1.7-0.2c0,0.3-0.1,0.5-0.1,0.8c0.6,0.1,1.1,0.2,1.7,0.2
		C54.7,59.2,54.8,58.9,54.8,58.7z"/>
	<path class="st0" d="M54.9,69.4c0.6,0.1,1.1,0.2,1.7,0.3c0-0.3,0.1-0.5,0.1-0.8c-0.6-0.1-1.1-0.2-1.7-0.2
		C54.9,68.9,54.9,69.1,54.9,69.4z"/>
	<path class="st0" d="M59.6,67.6c0.6,0.1,1.1,0.2,1.7,0.2c0-0.3,0.1-0.5,0.1-0.8c-0.6-0.1-1.1-0.2-1.7-0.2
		C59.6,67.1,59.6,67.4,59.6,67.6z"/>
	<path class="st0" d="M56.2,66.3c-0.6-0.1-1.1-0.2-1.7-0.2c0,0.3-0.1,0.5-0.1,0.8c0.6,0.1,1.1,0.2,1.7,0.2
		C56.1,66.8,56.2,66.6,56.2,66.3z"/>
	<path class="st0" d="M53.4,61.5c0.6,0.1,1.1,0.2,1.7,0.3c0-0.3,0.1-0.5,0.1-0.8c-0.6-0.1-1.1-0.2-1.7-0.3
		C53.5,61,53.5,61.3,53.4,61.5z"/>
	<path class="st0" d="M56,61.9c0.6,0.1,1.1,0.2,1.6,0.3c0-0.3,0.1-0.5,0.1-0.8c-0.6-0.1-1.1-0.2-1.7-0.3C56.1,61.4,56,61.7,56,61.9z
		"/>
	<path class="st0" d="M59,65c0.6,0.1,1.1,0.2,1.7,0.3c0-0.3,0.1-0.5,0.1-0.8c-0.6-0.1-1.1-0.2-1.7-0.3C59.1,64.5,59.1,64.7,59,65z"
		/>
	<path class="st0" d="M57.4,59c-0.6-0.1-1.1-0.2-1.7-0.2c0,0.3-0.1,0.5-0.1,0.8c0.6,0.1,1.1,0.2,1.7,0.2
		C57.3,59.6,57.3,59.3,57.4,59z"/>
	<path class="st0" d="M66.9,67.8c0-0.3-0.1-0.5-0.1-0.8c-0.6,0.1-1.1,0.1-1.7,0.2c0,0.3,0.1,0.5,0.1,0.8
		C65.8,67.9,66.3,67.8,66.9,67.8z"/>
	<path class="st0" d="M70.8,59.7c0-0.3-0.1-0.5-0.1-0.8c-0.6,0.1-1.1,0.2-1.7,0.2c0,0.3,0.1,0.5,0.1,0.8
		C69.8,59.9,70.3,59.8,70.8,59.7z"/>
	<path class="st0" d="M69.8,69c0,0.3,0.1,0.5,0.1,0.8c0.6-0.1,1.1-0.2,1.6-0.2c0-0.6,0-0.6-0.2-0.8C70.9,68.8,70.3,68.9,69.8,69z"/>
	<path class="st0" d="M67.9,62.5c0-0.3-0.1-0.5-0.1-0.8c-0.6,0.1-1.1,0.2-1.7,0.3c0,0.3,0.1,0.5,0.1,0.8
		C66.8,62.7,67.3,62.6,67.9,62.5z"/>
	<path class="st0" d="M70.2,66.5c0,0.3,0.1,0.5,0.1,0.8c0.6-0.1,1.1-0.2,1.7-0.2c0-0.3-0.1-0.5-0.1-0.8
		C71.3,66.3,70.8,66.4,70.2,66.5z"/>
	<path class="st0" d="M73,61.6c-0.1-0.3-0.1-0.5-0.1-0.8c-0.6,0.1-1.1,0.2-1.7,0.3c0.1,0.3,0.1,0.5,0.1,0.8
		C71.9,61.8,72.5,61.7,73,61.6z"/>
	<path class="st0" d="M70.4,62.1c0-0.3-0.1-0.5-0.1-0.8c-0.6,0.1-1.1,0.2-1.7,0.3c0,0.3,0.1,0.5,0.1,0.8
		C69.4,62.2,69.9,62.2,70.4,62.1z"/>
	<path class="st0" d="M73.4,59.3c0-0.3-0.1-0.5-0.1-0.8c-0.6,0.1-1.1,0.2-1.6,0.3c0,0.3,0.1,0.5,0.1,0.8
		C72.3,59.5,72.9,59.4,73.4,59.3z"/>
	<path class="st0" d="M67.2,69.4c0,0.3,0.1,0.5,0.1,0.8c0.6-0.1,1.1-0.2,1.6-0.2c0-0.3-0.1-0.5-0.1-0.8
		C68.3,69.2,67.8,69.3,67.2,69.4z"/>
	<path class="st0" d="M67.7,66.8c0,0.3,0.1,0.5,0.1,0.8c0.6-0.1,1.1-0.2,1.7-0.2c0-0.3-0.1-0.5-0.1-0.8
		C68.8,66.7,68.2,66.7,67.7,66.8z"/>
	<path class="st0" d="M69.8,63.9c-0.6,0.1-1.1,0.2-1.7,0.3c0.1,0.3,0.1,0.5,0.1,0.8c0.6-0.1,1.1-0.2,1.6-0.3
		C69.9,64.4,69.9,64.1,69.8,63.9z"/>
	<path class="st0" d="M67.4,65.1c0-0.3-0.1-0.5-0.1-0.8c-0.6,0.1-1.1,0.2-1.7,0.3c0,0.3,0.1,0.5,0.1,0.8
		C66.3,65.3,66.8,65.2,67.4,65.1z"/>
	<path class="st0" d="M66.4,70.3c0-0.3-0.1-0.5-0.1-0.8c-0.6,0-1.1,0.1-1.7,0.3c0.1,0.3,0,0.6,0.2,0.8
		C65.4,70.5,65.9,70.4,66.4,70.3z"/>
	<path class="st0" d="M68.3,60.1c0-0.3-0.1-0.5-0.1-0.8c-0.6,0.1-1.1,0.2-1.7,0.2c0,0.3,0.1,0.5,0.1,0.8
		C67.2,60.3,67.7,60.2,68.3,60.1z"/>
	<path class="st0" d="M71.6,63.6c-0.3,0-0.5,0.1-0.8,0.1c0,0.3,0.1,0.5,0.1,0.8c0.6-0.1,1.1-0.2,1.7-0.3c0-0.3-0.1-0.5-0.1-0.8
		C72.1,63.5,71.8,63.5,71.6,63.6z"/>
</g>
</svg>
