<?xml version="1.0" encoding="utf-8"?>
<!-- Generator: Adobe Illustrator 21.0.0, SVG Export Plug-In . SVG Version: 6.00 Build 0)  -->
<svg version="1.1" id="Layer_1" xmlns="http://www.w3.org/2000/svg" xmlns:xlink="http://www.w3.org/1999/xlink" x="0px" y="0px" viewBox="0 0 342.8 96" style="enable-background:new 0 0 342.8 96;" xml:space="preserve" height="84px" width="300px">
<style type="text/css">
	.st0{fill:#1cb810;}
	.st1{fill:#1cb810;}
</style>
<g>
	<g>
		<path class="st0" d="M50.8,11.8c0,0.1,0.1,0.2,0.1,0.4c0.8,0.1,1.5,0.1,2.3,0.2c0.4-0.8,4.6-10.3,4.6-10.6
			c-0.7-0.1-1.5-0.1-2.2-0.2c-1.1,2.6-2.1,5.2-3.2,7.8c0,0-0.1,0-0.1,0c-0.7-2.7-1.4-5.5-2.2-8.2c-0.4,0-0.8-0.1-1.1-0.1
			c-0.1,0-0.2,0-0.3-0.1c-0.3,0-0.6,0-0.8,0c0,0.1,0,0.3,0.1,0.4C48.9,4.9,49.8,8.4,50.8,11.8z"/>
		<path class="st0" d="M92.6,50.9c-0.1-0.9,0-1.8,0-2.7c-0.6,0-1.1,0-1.7,0c0,0.5,0,0.9,0,1.4c0,0.4,0,0.9,0,1.4c-0.9,0-1.7,0-2.6,0
			c0,0.6,0,1.1,0,1.7c0.9,0,1.7,0,2.6,0c0,0.4,0,0.8,0,1.2c0,0.4,0,0.7,0,1.1c0,0.4,0,0.8,0,1.1c0,0.4,0,0.7,0,1.1
			c0,0.4,0,0.8,0,1.1c0.6,0,1.1,0,1.7,0c0-1.9,0-3.8,0-5.7c0.3,0,0.6,0,1,0c0.5,0,1.1,0,1.6,0c0-0.6,0-1.2,0-1.8
			C94.3,50.9,93.5,50.9,92.6,50.9z"/>
		<path class="st0" d="M66.9,31.2c-1.5,0.1-3,0.2-4.5,0.3c-1.1,0.1-2.3,0.1-3.4,0.2c-1.5,0.1-3,0.2-4.5,0.3c-0.8,0-1.6,0.1-2.3,0.1
			c-0.4,0-0.8,0-1.2,0c0.5-4.9,0.9-9.8,1.4-14.7c0,0-0.1,0-0.1,0c-0.9,2.1-1.9,4.1-2.9,6.3c-1-2.2-2-4.3-3-6.4
			c-0.1,0.5-0.1,0.9-0.1,1.4c0,0.4,0,0.9,0,1.3c0,0.4,0,0.9,0,1.3c0,0.4,0,0.9,0,1.3c0,0.4,0,0.9,0,1.3c0,0.4,0,0.9,0,1.3
			c0,0.4,0,0.9,0,1.3c0,0.4,0,0.9,0,1.3c0,0.4,0,0.9,0,1.3c0,0.4,0,0.9,0,1.3c0,0.4,0,0.9,0,1.4c-1,0-1.9-0.1-2.8-0.1
			c-0.9,0-1.8-0.1-2.8-0.1c-0.9,0-1.9-0.1-2.8-0.1c-0.9,0-1.9-0.1-2.8-0.1c-0.9,0-1.8-0.1-2.8-0.1c-0.9,0-1.8-0.1-2.8-0.1
			c0,0,0,0.1,0,0.1c2.1,1,4.2,2,6.4,3.1c-0.6,0.3-1.1,0.6-1.6,0.8c-0.5,0.3-1,0.5-1.5,0.8c-0.5,0.3-1,0.5-1.5,0.8
			c-0.5,0.3-1,0.5-1.5,0.8c2.7-0.2,5.4-0.4,8.1-0.6c2.2-0.2,7.8-0.7,8.1-0.6c-0.7,4.7-1.4,9.4-2,14.2c0,0,0,0,0.1,0
			c1.2-1.9,2.4-3.8,3.7-5.8c0.5,1,1,2,1.5,2.9c0.5,0.9,1,1.9,1.5,2.8c0,0,0.1,0,0.1,0c-0.1-4.6-0.1-9.3-0.2-13.9c0.4,0,0.8,0,1.2,0
			c1.3,0.1,2.6,0.1,3.9,0.2c0.9,0,1.8,0.1,2.7,0.1c1.8,0.1,3.7,0.2,5.5,0.3c1,0.1,2.1,0.1,3.1,0.1c0.3,0,0.5,0,0.8,0
			c-0.5-0.3-1-0.5-1.5-0.8c-0.5-0.2-1-0.5-1.6-0.7c-0.5-0.2-1.1-0.5-1.6-0.7c-0.5-0.2-1-0.4-1.6-0.8c2.3-1.1,4.6-2.1,6.9-3.1
			C68,31.2,67.4,31.2,66.9,31.2z M48.7,36.2c-0.9,0-1.7-0.7-1.6-1.6c0-0.9,0.7-1.6,1.6-1.6c0.9,0,1.7,0.7,1.6,1.7
			C50.4,35.5,49.6,36.2,48.7,36.2z"/>
		<path class="st0" d="M18.9,52.8c0.6,2.3,1.9,4,4.1,4.9c0,0,0.1,0,0.1,0.1c0,0.7,0,1.3,0,1.9c-0.1,1.5-0.1,3-0.2,4.5
			c0,1.1-0.1,2.2-0.1,3.3c-0.1,1.6-0.1,3.3-0.2,4.9c0,0.5,0.2,0.7,0.6,0.9c0.6,0.2,1.1,0.2,1.7,0c0.4-0.2,0.6-0.5,0.7-0.9
			c0.1-1.2,0.2-2.4,0.2-3.6c0-0.5,0.1-0.9,0.1-1.4c0-0.5,0.3-0.7,0.7-0.9c0.4-0.2,0.8-0.2,1.3-0.2c0.8,0.1,1.2,0.5,1.2,1.4
			c0,1.6,0,3.2,0,4.8c0,0.4,0.2,0.7,0.6,0.9c0.5,0.2,1.1,0.3,1.7,0.1c0.5-0.1,0.7-0.4,0.7-0.9c0.1-1.6,0.2-3.1,0.3-4.7
			c0.1-1.7,0.2-3.3,0.3-5c0.1-1.5,0.2-3,0.3-4.5c0-0.2,0-0.5,0.1-0.7c0.1,0,0.2-0.1,0.2-0.1c3.5-1.1,5.5-4.7,5.1-7.9
			c-0.2-1.4-0.7-2.6-1.6-3.6c-0.3-0.3-0.6-0.6-1-0.8c-0.2-0.1-0.4-0.2-0.6-0.2c-0.3-0.1-0.5,0-0.6,0.3c-0.1,0.1-0.1,0.3-0.1,0.4
			c-0.1,0.5,0,1,0.1,1.5c0.2,0.7,0.3,1.4,0.3,2.2c-0.1,2-1,3.5-2.7,4.5c-1.8,1-3.7,1.2-5.6,0.6c-1.7-0.5-2.9-1.6-3.5-3.3
			c-0.4-1.1-0.4-2.2-0.2-3.3c0.1-0.6,0.3-1.3,0.5-1.9c0.1-0.4,0.2-0.8,0.1-1.2c-0.1-0.5-0.4-0.7-0.8-0.6c-0.3,0.1-0.5,0.2-0.8,0.3
			c-0.6,0.4-1.1,0.9-1.6,1.5C18.6,48,18.2,50.3,18.9,52.8z"/>
		<path class="st0" d="M53.5,72.5c1.3,0,2.6,0.2,3.9,0.4c2.1,0.5,4.1,1.2,6,2.2c0.2,0.1,0.4,0.1,0.6,0c0.8-0.4,1.6-0.8,2.4-1.1
			c2.2-0.9,4.6-1.5,7-1.8c0.3,0,0.7-0.1,1-0.1c0.2-0.7,0.4-1.4,0.6-2.1c0.1-0.2,0.1-0.3,0.2-0.4c0.1-0.3,0.1-0.6,0.2-0.8
			c1.2-3.9,2.3-7.8,3.5-11.7c0-0.1,0.1-0.2,0.1-0.4c-0.1,0-0.2-0.1-0.2-0.1c-1.7-0.5-3.4-0.8-5.2-0.9c-1.1-0.1-2.3,0-3.4,0.1
			c-1.9,0.2-3.7,0.8-5.4,1.5c-0.2,0.1-0.4,0.1-0.6,0c-0.8-0.4-1.6-0.7-2.4-1c-1.9-0.7-3.8-1.2-5.8-1.2c-1.5-0.1-2.9,0.1-4.3,0.6
			c-0.6,0.2-1.2,0.4-1.8,0.6c1,5.4,1.9,10.8,2.9,16.3C53,72.5,53.3,72.5,53.5,72.5z M64.7,71.6c0.1-0.4,0.1-0.8,0.1-1.1
			c0-0.4,0-0.8,0-1.1c0-0.2,0-0.4,0-0.6c0.2,0,0.3-0.1,0.4-0.1c0-0.3-0.1-0.5-0.1-0.8c-0.1,0-0.2,0-0.3,0c0-0.6,0.1-1.1,0.1-1.7
			c0.3-0.1,0.6-0.1,0.9-0.2c0-0.3-0.1-0.5-0.1-0.8c-0.2,0-0.5,0-0.7,0.1c0-0.2,0-0.5,0-0.7c0-0.3,0-0.5,0-0.8c0-0.2,0.1-0.3,0.3-0.3
			c0.3,0,0.6-0.1,1-0.2c0-0.3-0.1-0.5-0.1-0.8c-0.4,0-0.7,0.1-1.1,0.2c0-0.5,0-1,0.1-1.6c0.5-0.1,1-0.2,1.5-0.3
			c0-0.3-0.1-0.5-0.1-0.8c-0.5,0-0.9,0.1-1.4,0.1c0-0.4,0-0.8,0-1.1c3.8-1.7,7.6-2.1,11.6-1.1c-0.1,0.2-0.1,0.4-0.2,0.5
			c-0.4,0.1-0.8,0.1-1.3,0.2c0,0.3,0.1,0.5,0.1,0.8c0.3,0,0.6-0.1,0.9-0.1c-0.1,0.5-0.3,0.9-0.4,1.4c0,0.1-0.1,0.1-0.2,0.1
			c-0.3,0.1-0.5,0.1-0.8,0.2c0.1,0.3,0.1,0.5,0.1,0.8c0.2,0,0.4,0,0.6-0.1c0,0.2-0.1,0.3-0.1,0.4c-0.1,0.4-0.2,0.7-0.3,1.1
			c-0.1,0.3-0.2,0.4-0.4,0.4c-0.1,0-0.2,0-0.3,0.1c0,0.2,0,0.5,0.1,0.7c0,0.1,0.2,0.1,0.3,0.2c-0.2,0.6-0.3,1.2-0.5,1.7
			c0,0.1-0.2,0.2-0.4,0.3c0,0,0,0.1,0,0.2c0,0.3,0,0.6-0.1,0.9c-0.3,0.8-0.5,1.7-0.8,2.5c-0.1,0.3-0.2,0.3-0.4,0.4
			c-2.6,0.3-5.2,1-7.6,2.1c-0.2,0.1-0.3,0.1-0.5,0.2c0-0.1,0-0.2,0-0.3C64.6,72.2,64.6,71.9,64.7,71.6z M52.6,60.7
			c-0.2,0-0.3-0.1-0.3-0.3c-0.1-0.4-0.1-0.7-0.2-1.2c0.2,0,0.4,0,0.6,0c0.2-0.2,0.1-0.5,0.2-0.8c-0.4-0.1-0.6-0.1-1-0.2
			c-0.1-0.3-0.1-0.6-0.2-1c0.5-0.2,0.9-0.3,1.4-0.4c1.9-0.4,3.8-0.2,5.7,0.2c1.5,0.4,3,1,4.4,1.7c0,0,0.1,0.1,0.1,0.1
			c0,0.4,0,0.7,0,1.1c-0.6,0-1.1-0.2-1.7-0.2c0,0.3-0.1,0.5-0.1,0.8c0.6,0.2,1.2,0.2,1.8,0.3c0,0.5,0,1-0.1,1.6
			c-0.2,0-0.4-0.1-0.6-0.1c-0.2,0-0.4-0.1-0.6-0.1c0,0.3-0.1,0.5-0.1,0.8c0.4,0.1,0.8,0.2,1.3,0.2c0,0.6-0.1,1.1-0.1,1.7
			c-0.2,0-0.4,0-0.6,0c0,0.3-0.1,0.5-0.1,0.8c0.2,0.1,0.4,0.1,0.6,0.1c0.1,0.3-0.2,6.7-0.3,7c-1.4-0.6-2.8-1.1-4.2-1.5
			c-1.4-0.4-2.9-0.6-4.4-0.7c-0.1-0.4-0.1-0.7-0.2-1.1c0.2,0,0.4,0,0.7,0c0-0.3,0.1-0.5,0.1-0.8c-0.3-0.1-0.5-0.1-0.8-0.1
			c-0.1,0-0.2-0.1-0.2-0.2c-0.1-0.5-0.2-1-0.3-1.5c0.2,0,0.4,0,0.7,0c0-0.3,0.1-0.5,0.1-0.8c-0.3,0-0.5-0.1-0.8-0.1
			c-0.1,0-0.2-0.1-0.2-0.2c-0.1-0.6-0.2-1.2-0.3-1.8c0.2,0,0.4,0,0.7,0.1c0-0.3,0.1-0.5,0.1-0.8c-0.3-0.1-0.6-0.1-1-0.2
			c-0.1-0.6-0.2-1.1-0.3-1.7c0.2,0,0.4,0,0.7,0.1c0-0.3,0.1-0.5,0.1-0.8C53.1,60.8,52.9,60.8,52.6,60.7z"/>
		<path class="st0" d="M72.8,21.3c1.1-1.1,2.1-2.2,3.1-3.3c0.2,0.1,0.3,0.3,0.4,0.3c0.8,0.6,1,1.4,0.8,2.4c-0.2,1.2-0.4,2.5-0.6,3.7
			c0,0.2,0,0.4,0.2,0.5c0.5,0.4,0.9,0.9,1.4,1.3c0.1,0.1,0.2,0.1,0.3,0.2c0-0.1,0.1-0.1,0.1-0.2c0.2-0.9,0.4-1.9,0.5-2.8
			c0.2-1,0.3-1.9,0-2.9c0,0,0-0.1,0-0.1c0.2,0.1,0.5,0.3,0.7,0.4c0.5,0.2,1.1,0.4,1.6,0.3c0.9-0.1,1.6-0.6,2.1-1.3
			c0.7-1,0.9-2.3,0-3.4c-0.4-0.5-0.8-0.9-1.2-1.3C81.1,14,80,13,78.9,12c-0.1-0.1-0.2-0.1-0.2-0.2c-2.5,2.7-5,5.3-7.4,8
			C71.8,20.3,72.3,20.8,72.8,21.3z M79,14.6c0.1,0.1,0.1,0.1,0.2,0.1c0.7,0.7,1.4,1.3,2.1,2c0.3,0.3,0.5,0.6,0.5,1.1
			c0,0.6-0.4,1-0.8,1.2c-0.4,0.2-0.9,0.2-1.3-0.1c-0.4-0.3-0.8-0.7-1.3-1.1c-0.4-0.4-0.8-0.8-1.3-1.2C77.8,16,78.4,15.3,79,14.6z"/>
		<path class="st0" d="M69.7,18.5c0.3-0.5,0.6-1.1,0.8-1.6c-1.8-1-3.6-1.9-5.4-2.9c0.5-0.9,0.9-1.8,1.4-2.7c1.6,0.9,3.2,1.7,4.9,2.6
			c0.3-0.5,0.6-1.1,0.8-1.6c-1.6-0.9-3.2-1.7-4.9-2.6c0.4-0.8,0.8-1.5,1.2-2.2c1.8,0.9,3.5,1.8,5.2,2.8c0.3-0.5,0.6-1.1,0.9-1.6
			c-2.4-1.3-4.8-2.5-7.2-3.8c-1.7,3.2-3.4,6.4-5.1,9.7C64.8,15.9,67.2,17.2,69.7,18.5z"/>
		<path class="st0" d="M7.1,36.4c0.8,0,1.5-0.3,2-0.8c0.4-0.4,0.7-0.8,1.1-1.2c0.4-0.5,0.8-1.1,1.2-1.6c0.1-0.2,0.3-0.4,0.5-0.5
			c0.4-0.3,0.9-0.3,1.4,0c0.4,0.3,0.6,0.7,0.6,1.2c0,0.5-0.1,1.1-0.4,1.5c-0.4,0.9-1.1,1.3-2.1,1.3c-0.2,0-0.4,0-0.6,0
			c-0.2,0.7-0.4,1.3-0.6,2c0.5,0.2,0.9,0.2,1.4,0.2c1.2,0,2.2-0.5,2.9-1.5c0.6-0.8,1-1.7,1.2-2.7c0.1-0.5,0.2-1.1,0.1-1.6
			c-0.2-1.2-0.9-2.1-2.1-2.5c-1.2-0.4-2.3-0.3-3.2,0.6c-0.3,0.3-0.5,0.5-0.7,0.8c-0.4,0.5-0.8,1.1-1.2,1.6c-0.3,0.4-0.6,0.7-0.9,1
			c-0.3,0.2-0.6,0.3-0.9,0.1c-0.3-0.1-0.5-0.4-0.5-0.8c-0.1-0.7,0.2-1.4,0.6-2c0.3-0.5,0.7-0.7,1.3-0.7c0.2,0,0.4,0,0.6,0
			c0.2-0.7,0.4-1.3,0.7-2c-0.1,0-0.2-0.1-0.3-0.1c-1.3-0.3-2.6,0.1-3.4,1.3c-0.6,0.8-0.9,1.7-1.1,2.7c-0.1,0.5-0.1,1.1,0,1.6
			C4.5,35.3,5.5,36.4,7.1,36.4z"/>
		<path class="st0" d="M89.1,34.8c-0.1-0.8-0.2-1.6-0.3-2.5c-0.1-0.5-0.2-1,0-1.6c0.1-0.6,0.8-0.9,1.3-0.5c0.1,0.1,0.2,0.2,0.3,0.3
			c0.4,0.5,0.7,1.1,0.8,1.7c0.1,0.6-0.1,1.1-0.6,1.5c-0.1,0.1-0.2,0.2-0.3,0.2c0.3,0.7,0.6,1.3,0.9,1.9c1.2-0.6,1.9-1.5,1.9-2.7
			c0-1.6-0.6-3-1.7-4.2c-0.1-0.1-0.2-0.2-0.3-0.3c-1.7-1.3-4.1-0.4-4.6,1.6c-0.1,0.6-0.1,1.3,0,1.9c0.1,0.6,0.2,1.1,0.2,1.7
			c0,0.4,0.1,0.8,0,1.3c-0.1,0.6-0.5,0.9-1.1,0.9c-0.5,0-0.9-0.2-1.2-0.5c-0.3-0.3-0.5-0.7-0.7-1.1c-0.4-1.1-0.2-1.9,0.7-2.7
			c0.1-0.1,0.2-0.2,0.3-0.3c-0.3-0.6-0.7-1.2-1-1.8c-0.6,0.3-1.1,0.7-1.5,1.2c-0.4,0.6-0.7,1.2-0.7,1.9c0,1.8,0.7,3.3,1.9,4.5
			c0.7,0.8,1.7,1,2.7,0.8c1.3-0.2,2.4-1.1,2.6-2.4C89.1,35.5,89.1,35.1,89.1,34.8z"/>
		<path class="st0" d="M39.2,13.1c0.2,0,0.2-0.1,0.2-0.3c0.1-0.7,0.3-1.4,0.4-2.1c0-0.2,0.1-0.3,0.3-0.3c0.8-0.1,1.7-0.2,2.5-0.4
			c0.5-0.1,1-0.1,1.6-0.2c0.4,0.8,0.9,1.6,1.3,2.3c0.8-0.1,1.5-0.2,2.3-0.3c-2-3.4-3.9-6.8-5.9-10.2c-0.8,0.1-1.5,0.2-2.3,0.3
			c-0.9,3.8-1.8,7.6-2.7,11.4c0.1,0,0.2,0,0.2,0C37.9,13.3,38.5,13.2,39.2,13.1z M41.2,4.4C41.2,4.4,41.3,4.4,41.2,4.4
			c0.8,1.2,1.4,2.5,2.1,3.7c-0.3,0.1-2.5,0.5-3,0.4C40.6,7.2,40.9,5.8,41.2,4.4z"/>
		<path class="st0" d="M28.2,11.5c0.3,0.1,0.4,0.3,0.3,0.6c-0.1,1-0.1,1.9-0.2,2.9c-0.1,0.9-0.1,1.9-0.2,2.8c0,0.2,0,0.4,0,0.7
			c0.1-0.1,0.2-0.1,0.3-0.2c0.5-0.3,1-0.6,1.6-0.9c0.2-0.1,0.3-0.3,0.3-0.6c0.1-1.3,0.2-2.5,0.2-3.8c0-0.1,0-0.2,0.1-0.3
			c0.2,0.1,0.3,0.1,0.4,0.2c1.1,0.6,2.2,1.2,3.3,1.8c0.2,0.1,0.3,0.1,0.5,0c0.6-0.3,1.2-0.7,1.8-1c0.1,0,0.1-0.1,0.2-0.2
			c-0.1-0.1-0.3-0.1-0.4-0.2c-0.6-0.3-1.2-0.6-1.9-1c-1.1-0.6-2.3-1.2-3.4-1.8c-0.3-0.2-0.3-0.2-0.3-0.5C31,9.7,31,9.2,31,8.7
			c0.1-1.1,0.2-2.3,0.2-3.4c0-0.3,0-0.7,0-1c-0.1,0-0.1,0-0.1,0c-0.6,0.3-1.2,0.7-1.8,1c-0.2,0.1-0.2,0.2-0.2,0.4c0,1-0.1,2-0.1,3
			c0,0.3,0,0.5-0.1,0.8c-0.2-0.1-0.3-0.1-0.4-0.2c-1-0.5-2-1.1-2.9-1.6c-0.1-0.1-0.3-0.2-0.4-0.1c-0.7,0.4-1.3,0.7-2.1,1.1
			c0.2,0.1,0.3,0.2,0.4,0.2C25.1,9.8,26.6,10.7,28.2,11.5z"/>
		<path class="st0" d="M25,48.6c0,2.1,1.7,3.8,3.8,3.8c2.3,0,3.8-1.9,3.8-3.8c0-2-1.6-3.8-3.8-3.8C26.7,44.8,25,46.5,25,48.6z"/>
		<path class="st0" d="M68.2,82c0.5,0.9,0.9,1.8,1.4,2.6c-0.9,0.5-1.8,1-2.7,1.4c-0.5-0.9-0.9-1.8-1.4-2.6c-0.4,0.2-0.8,0.4-1.1,0.6
			c-0.3,0.2-0.7,0.4-1.1,0.5c-1.4,0.5-2.8,1-4.2,1.4c-0.1,0-0.2,0.1-0.4,0.1c0.1,0.4,0.3,0.8,0.4,1.2c0.7-0.2,1.4-0.5,2.1-0.7
			c0.7,2,1.4,4,2.1,6c0.5-0.2,0.9-0.3,1.4-0.5c-0.7-2-1.4-4-2-6c0.7-0.2,1.4-0.5,2.1-0.7c1,1.8,2,3.7,2.9,5.5
			c0.4-0.2,0.9-0.5,1.3-0.7c-0.5-1-1-1.9-1.6-2.9c0.9-0.5,1.8-1,2.7-1.4c0.5,1,1,1.9,1.6,2.9c0.5-0.2,0.9-0.5,1.3-0.7
			c-1.2-2.2-2.4-4.4-3.5-6.7C69,81.5,68.6,81.7,68.2,82z"/>
		<path class="st0" d="M11.8,22.2c2.5,1.8,4.9,3.6,7.4,5.4c0.4-0.6,0.8-1.2,1.3-1.8c-2.5-1.8-4.9-3.6-7.4-5.4
			c0.6-0.9,1.3-1.8,1.9-2.6c-0.5-0.4-1-0.7-1.5-1.1c-1.7,2.3-3.4,4.7-5.1,7c0.5,0.4,1,0.7,1.5,1.1C10.5,24,11.1,23.1,11.8,22.2z"/>
		<path class="st0" d="M48.5,92.7c-0.2-0.4-0.5-0.7-0.8-1c-0.1-0.1-0.1-0.1-0.2-0.2c0.2,0,0.3-0.1,0.5-0.1c0.9-0.2,1.5-0.8,1.6-1.7
			c0.1-0.9-0.2-2-1.5-2.3c-0.2-0.1-0.5-0.1-0.7-0.1c-1-0.1-2-0.2-3-0.3c-0.2,0-0.5,0-0.7,0c-0.2,2.5-0.4,5-0.6,7.5
			c0.5,0,1,0.1,1.5,0.1c0.1-1.1,0.2-2.1,0.3-3.1c0.8-0.1,1.4,0.1,1.7,0.8c0.1,0.2,0.2,0.3,0.3,0.5c0.4,0.6,0.7,1.3,1.1,1.9
			c0.1,0.1,0.2,0.2,0.3,0.2c0.5,0.1,1.1,0.1,1.6,0.2c0-0.1,0-0.1-0.1-0.2C49.2,94.1,48.8,93.4,48.5,92.7z M44.8,90.2
			c0.1-0.7,0.1-1.3,0.2-1.9c0.2,0,0.4,0,0.6,0c0.5,0,1,0.1,1.4,0.1c0.1,0,0.2,0,0.3,0c0.5,0.1,0.8,0.5,0.7,1.1
			c-0.1,0.5-0.4,0.8-0.9,0.8C46.4,90.3,45.6,90.3,44.8,90.2z"/>
		<path class="st0" d="M82.8,77c-0.5-0.1-1.1-0.1-1.6,0c-0.1,0-0.2,0-0.3,0c0.1-0.1,0.1-0.2,0.2-0.3c0.8-1.4-0.1-2.5-1-2.9
			c-0.7-0.3-1.3-0.3-1.9,0.2c-0.3,0.2-0.6,0.5-0.8,0.7c-0.8,0.8-1.5,1.6-2.3,2.5c0,0-0.1,0.1-0.1,0.2c1.8,1.7,3.7,3.4,5.5,5.1
			c0.3-0.4,0.7-0.7,1-1.1c-0.8-0.7-1.5-1.4-2.3-2.2c0.2-0.2,0.3-0.3,0.5-0.5c0.3-0.3,0.6-0.4,1-0.4c0.3,0,0.6,0.1,0.8,0.1
			c0.7,0.1,1.4,0.2,2.1,0.3c0.1,0,0.3,0,0.4-0.1c0.4-0.4,0.7-0.8,1.1-1.2c-0.1,0-0.2-0.1-0.3-0.1C84.1,77.2,83.5,77.1,82.8,77z
			 M79.9,76.5c0,0.1-0.1,0.1-0.1,0.2c-0.5,0.5-0.9,1.1-1.4,1.6c-0.1-0.1-0.2-0.1-0.2-0.2c-0.4-0.4-0.8-0.8-1.2-1.2
			c0.1-0.1,0.1-0.2,0.2-0.2c0.4-0.5,0.9-1,1.3-1.4c0.4-0.4,1-0.4,1.4,0.1C80.1,75.8,80.1,76.2,79.9,76.5z"/>
		<path class="st0" d="M39.7,86c-1.9-0.4-3.5,0.4-4.1,2.3c-0.2,0.5-0.3,1.1-0.4,1.6c-0.1,1.4,0.4,2.7,1.8,3.4
			c0.6,0.3,1.3,0.5,1.9,0.5c1.4,0,2.5-0.6,3.1-1.7c0.5-0.9,0.7-1.8,0.7-2.8c0-0.8-0.3-1.6-0.9-2.2C41.2,86.4,40.4,86.1,39.7,86z
			 M40.6,91.3c-0.3,0.6-0.7,0.9-1.4,1.1c-1.3,0.3-2.4-0.6-2.5-1.9c0-0.1,0-0.2,0-0.3c0-0.7,0.2-1.3,0.5-1.9c0.7-1.3,2.1-1.4,3.1-0.7
			c0.6,0.4,0.8,1,0.8,1.7C41.1,90,40.9,90.7,40.6,91.3z"/>
		<path class="st0" d="M57.1,86.5c-0.5-0.1-1.1-0.1-1.6,0c-1.6,0.2-2.8,1.4-3,2.9c-0.1,1,0,2.1,0.5,3c0.6,1.2,1.7,1.8,3,1.9
			c0.5,0,1-0.1,1.5-0.3c1.3-0.5,2.1-1.4,2.3-2.8c0.1-1.1-0.1-2.1-0.6-3.1C58.8,87.3,58.1,86.7,57.1,86.5z M58.3,91.4
			c-0.2,0.9-0.8,1.4-1.7,1.5c-0.9,0.1-1.5-0.2-2-0.9c-0.5-0.9-0.7-1.8-0.5-2.8c0.2-0.9,0.8-1.4,1.8-1.5c0.8-0.1,1.5,0.2,1.9,0.9
			c0.4,0.6,0.5,1.4,0.5,2.1C58.3,91,58.3,91.2,58.3,91.4z"/>
		<path class="st0" d="M5.9,48.2c-0.4-0.1-1.4-0.1-1.7,0c0,0.9,0,1.7,0,2.7c-0.9,0-1.7,0-2.6,0c0,0.6,0,1.1,0,1.7c0.9,0,1.7,0,2.6,0
			c0,1.9,0,3.8,0,5.7c0.6,0,1.1,0,1.7,0c0-1.9,0-3.8,0-5.7c0.9,0,1.7,0,2.6,0c0-0.6,0-1.1,0-1.7c-0.9,0-1.7,0-2.6,0
			C5.9,49.9,5.9,49,5.9,48.2z"/>
		<path class="st0" d="M75.3,84.9c-0.5-0.6-0.9-1.1-1.3-1.6c1-0.8,2-1.6,3-2.4c-0.3-0.3-0.5-0.6-0.8-1c-1,0.8-2,1.6-3,2.4
			c-0.4-0.5-0.7-0.9-1.1-1.3c1.1-0.9,2.1-1.7,3.2-2.6c-0.3-0.3-0.5-0.6-0.8-1c-1.5,1.2-2.9,2.3-4.3,3.5c1.6,2,3.2,3.9,4.7,5.9
			c0.8-0.6,4.3-3.4,4.4-3.6c-0.2-0.3-0.5-0.6-0.7-0.9C77.5,83.2,76.4,84,75.3,84.9z"/>
		<path class="st0" d="M28.6,83.1c0.2-0.3,0.5-0.7,0.7-1c-1.5-1.1-3-2.2-4.5-3.3c-1.5,2.1-3,4.1-4.4,6.1c1.6,1.1,3.1,2.2,4.6,3.4
			c0.2-0.3,0.5-0.7,0.7-1c-1.2-0.8-2.3-1.7-3.4-2.5c0.4-0.6,0.8-1.1,1.2-1.7c1,0.8,2.1,1.5,3.1,2.2c0.3-0.4,0.5-0.7,0.7-1
			c-1-0.8-2.1-1.5-3.1-2.2c0.4-0.5,0.7-0.9,1-1.4C26.4,81.5,27.5,82.3,28.6,83.1z"/>
		<path class="st0" d="M85.6,70.3c-0.4,0-0.8,0.2-1.1,0.4c-0.4,0.3-0.9,0.7-1.3,1c-0.3,0.2-0.5,0.4-0.8,0.6c-0.2,0.1-0.5,0.2-0.7,0
			c-0.2-0.2-0.3-0.4-0.2-0.7c0.1-0.5,0.4-0.9,0.8-1.2c0.3-0.2,0.6-0.3,0.9-0.2c0.1,0,0.2,0.1,0.4,0.1c0.3-0.4,0.5-0.8,0.8-1.2
			c-0.8-0.5-1.6-0.5-2.3-0.1c-1,0.6-1.6,1.5-1.9,2.6c-0.3,1.6,1.2,2.6,2.3,2.3c0.5-0.1,1-0.4,1.4-0.7c0.4-0.3,0.8-0.7,1.2-1
			c0.1-0.1,0.3-0.2,0.4-0.3c0.4-0.2,0.8-0.1,1,0.3c0.1,0.2,0.1,0.4,0.1,0.6c0,0.6-0.6,1.5-1.2,1.7c-0.2,0.1-0.4,0.1-0.6,0.1
			c-0.2,0-0.5-0.1-0.7-0.2c-0.2,0.4-0.5,0.8-0.7,1.2c0.9,0.6,2,0.6,2.9,0c0.8-0.6,1.4-1.4,1.7-2.4C88.5,71.5,87,70.1,85.6,70.3z"/>
		<path class="st0" d="M60.2,13.9c1-3.5,2-7,3-10.5c-0.7-0.2-1.4-0.4-2.1-0.6c-0.3,1.2-0.7,2.4-1,3.5c-0.3,1.2-0.7,2.3-1,3.5
			c-0.3,1.2-0.7,2.3-1,3.5c0.7,0.2,1.3,0.4,1.9,0.5C60,13.8,60.1,13.8,60.2,13.9z"/>
		<path class="st0" d="M23.3,77.7c-0.1,0-0.1,0-0.1,0c-1.7,0.9-3.3,1.7-5,2.6c0,0-0.1,0-0.1,0c0,0,0,0,0,0c0,0,0,0,0,0
			c0.8-1.8,1.6-3.5,2.4-5.2c-0.4-0.4-0.7-0.8-1.1-1.2c-1.1,2.5-2.2,4.9-3.3,7.3c0.4,0.4,0.8,0.8,1.2,1.1c2.4-1.2,4.8-2.4,7.1-3.5
			C24,78.4,23.6,78,23.3,77.7z"/>
		<path class="st0" d="M32.5,85c1.2,0.5,2.3,0.9,3.4,1.4c0.2-0.4,0.3-0.8,0.5-1.1c-1.6-0.7-3.2-1.3-4.8-1.9c-1,2.4-1.9,4.7-2.8,7
			c0.5,0.2,0.9,0.4,1.4,0.6c0.4-1,0.8-2,1.2-3c1,0.4,2,0.8,2.9,1.2c0.2-0.4,0.3-0.8,0.5-1.1c-1-0.4-2-0.8-2.9-1.2
			C32.1,86.1,32.3,85.6,32.5,85z"/>
		<path class="st0" d="M10.6,72.4c1.8-1.1,3.5-2.2,5.3-3.3c-0.3-0.4-0.5-0.8-0.8-1.3c-2.1,1.3-4.2,2.6-6.4,4c0.9,1.5,1.9,3,2.8,4.5
			c0.4-0.2,0.7-0.4,1-0.7C12,74.5,11.3,73.5,10.6,72.4z"/>
		<path class="st0" d="M18.4,72.4c-2,1.6-4,3.1-6,4.7c0.3,0.4,0.6,0.8,0.9,1.2c2-1.6,4-3.1,6-4.7C19,73.2,18.7,72.8,18.4,72.4z"/>
		<path class="st0" d="M86.3,24.9c0.9-0.3,1.6-0.9,2.5-1.5c-0.4-0.6-0.8-1.1-1.2-1.7c-0.6,0.4-1.1,0.8-1.7,1.1
			c0.2,0.3,0.4,0.6,0.5,0.8c-0.7,0.5-1.3,0.4-2-0.1c-0.2,0.3-0.3,0.5-0.5,0.8C84.7,25,85.4,25.2,86.3,24.9z"/>
		<path class="st0" d="M24,22.1c-0.5-0.5-1-0.9-1.5-1.4c-0.5,0.5-1,1-1.4,1.5c0.5,0.5,1,0.9,1.5,1.4C23.1,23,23.5,22.6,24,22.1z"/>
		<path class="st0" d="M59.6,67.1c-0.6-0.1-1.1-0.2-1.7-0.2c0,0.3-0.1,0.5-0.1,0.8c0.6,0.1,1.1,0.2,1.7,0.2
			C59.5,67.6,59.6,67.4,59.6,67.1z"/>
		<path class="st0" d="M58.2,70.3c0.6,0.1,1.1,0.2,1.7,0.3c0-0.3,0.1-0.5,0.1-0.8c-0.6-0.1-1.1-0.2-1.7-0.3
			C58.3,69.8,58.3,70,58.2,70.3z"/>
		<path class="st0" d="M60.8,59.7c-0.6-0.1-1.1-0.2-1.7-0.3c0,0.3-0.1,0.5-0.1,0.8c0.6,0.1,1.1,0.2,1.7,0.3
			C60.7,60.2,60.8,60,60.8,59.7z"/>
		<path class="st0" d="M61,69.9c0,0.3-0.1,0.5-0.1,0.8c0.6,0.1,1.1,0.2,1.7,0.3c0-0.3,0.1-0.5,0.1-0.8c-0.3,0-0.5-0.1-0.8-0.1
			C61.6,69.9,61.3,69.9,61,69.9z"/>
		<path class="st0" d="M56.5,63.9c-0.6-0.1-1.1-0.2-1.7-0.3c0,0.3-0.1,0.5-0.1,0.8c0.6,0.1,1.1,0.2,1.7,0.3
			C56.4,64.5,56.4,64.2,56.5,63.9z"/>
		<path class="st0" d="M59.4,62.7c0.6,0.1,1.1,0.2,1.7,0.2c0-0.3,0.1-0.5,0.1-0.8c-0.6-0.1-1.1-0.2-1.7-0.3
			C59.5,62.2,59.4,62.4,59.4,62.7z"/>
		<path class="st0" d="M57.2,64.9c0.6,0.1,1.1,0.2,1.7,0.3c0-0.3,0.1-0.5,0.1-0.8c-0.6-0.1-1.1-0.2-1.7-0.2
			C57.3,64.4,57.3,64.6,57.2,64.9z"/>
		<path class="st0" d="M55.6,58.9c-0.6-0.1-1.1-0.2-1.7-0.2c0,0.3-0.1,0.5-0.1,0.8c0.6,0.1,1.1,0.2,1.7,0.2
			C55.5,59.4,55.5,59.2,55.6,58.9z"/>
		<path class="st0" d="M55.6,69.9c0.6,0.1,1.1,0.2,1.7,0.3c0-0.3,0.1-0.5,0.1-0.8c-0.6-0.1-1.1-0.2-1.7-0.2
			C55.7,69.4,55.7,69.6,55.6,69.9z"/>
		<path class="st0" d="M60.4,68.1c0.6,0.1,1.1,0.2,1.7,0.2c0-0.3,0.1-0.5,0.1-0.8c-0.6-0.1-1.1-0.2-1.7-0.2
			C60.5,67.5,60.5,67.8,60.4,68.1z"/>
		<path class="st0" d="M57,66.7c-0.6-0.1-1.1-0.2-1.7-0.2c0,0.3-0.1,0.5-0.1,0.8c0.6,0.1,1.1,0.2,1.7,0.2C56.9,67.2,56.9,67,57,66.7
			z"/>
		<path class="st0" d="M54.2,61.8c0.6,0.1,1.1,0.2,1.7,0.3c0-0.3,0.1-0.5,0.1-0.8c-0.6-0.1-1.1-0.2-1.7-0.3
			C54.2,61.3,54.2,61.5,54.2,61.8z"/>
		<path class="st0" d="M56.8,62.3c0.6,0.1,1.1,0.2,1.7,0.3c0-0.3,0.1-0.5,0.1-0.8c-0.6-0.1-1.1-0.2-1.7-0.3
			C56.9,61.7,56.8,62,56.8,62.3z"/>
		<path class="st0" d="M59.9,65.3c0.6,0.1,1.1,0.2,1.7,0.3c0-0.3,0.1-0.5,0.1-0.8c-0.6-0.1-1.1-0.2-1.7-0.3
			C60,64.8,59.9,65.1,59.9,65.3z"/>
		<path class="st0" d="M58.2,59.3c-0.6-0.1-1.1-0.2-1.7-0.3c0,0.3-0.1,0.5-0.1,0.8c0.6,0.1,1.1,0.2,1.7,0.2
			C58.1,59.8,58.1,59.6,58.2,59.3z"/>
		<path class="st0" d="M67.9,68.2c0-0.3-0.1-0.5-0.1-0.8c-0.6,0.1-1.1,0.2-1.7,0.2c0,0.3,0.1,0.5,0.1,0.8
			C66.8,68.3,67.3,68.3,67.9,68.2z"/>
		<path class="st0" d="M71.9,59.9c0-0.3-0.1-0.5-0.1-0.8c-0.6,0.1-1.1,0.2-1.7,0.3c0,0.3,0.1,0.5,0.1,0.8
			C70.8,60.1,71.4,60.1,71.9,59.9z"/>
		<path class="st0" d="M70.9,69.4c0,0.3,0.1,0.5,0.1,0.8c0.6-0.1,1.1-0.2,1.7-0.2c0-0.6,0-0.6-0.2-0.8C72,69.3,71.4,69.3,70.9,69.4z
			"/>
		<path class="st0" d="M68.9,62.8c0-0.3-0.1-0.5-0.1-0.8c-0.6,0.1-1.1,0.2-1.7,0.3c0,0.3,0.1,0.5,0.1,0.8
			C67.8,63,68.3,62.9,68.9,62.8z"/>
		<path class="st0" d="M71.3,66.9c0,0.3,0.1,0.5,0.1,0.8c0.6-0.1,1.1-0.2,1.7-0.2c0-0.3-0.1-0.5-0.1-0.8
			C72.4,66.7,71.9,66.8,71.3,66.9z"/>
		<path class="st0" d="M74.2,61.9c-0.1-0.3-0.1-0.5-0.1-0.8c-0.6,0.1-1.1,0.2-1.7,0.3c0.1,0.3,0.1,0.5,0.1,0.8
			C73.1,62.1,73.6,62,74.2,61.9z"/>
		<path class="st0" d="M71.5,62.4c0-0.3-0.1-0.5-0.1-0.8c-0.6,0.1-1.1,0.2-1.7,0.3c0,0.3,0.1,0.5,0.1,0.8
			C70.4,62.6,71,62.5,71.5,62.4z"/>
		<path class="st0" d="M74.6,59.6c0-0.3-0.1-0.5-0.1-0.8c-0.6,0.1-1.1,0.2-1.7,0.3c0,0.3,0.1,0.5,0.1,0.8
			C73.5,59.8,74,59.7,74.6,59.6z"/>
		<path class="st0" d="M68.3,69.8c0,0.3,0.1,0.5,0.1,0.8c0.6-0.1,1.1-0.2,1.7-0.3c0-0.3-0.1-0.5-0.1-0.8
			C69.4,69.7,68.8,69.7,68.3,69.8z"/>
		<path class="st0" d="M68.7,67.2c0,0.3,0.1,0.5,0.1,0.8c0.6-0.1,1.1-0.2,1.7-0.3c0-0.3-0.1-0.5-0.1-0.8
			C69.8,67.1,69.3,67.1,68.7,67.2z"/>
		<path class="st0" d="M70.9,64.2c-0.6,0.1-1.1,0.2-1.7,0.3c0.1,0.3,0.1,0.5,0.1,0.8c0.6-0.1,1.1-0.2,1.7-0.3
			C71,64.7,71,64.5,70.9,64.2z"/>
		<path class="st0" d="M68.4,65.5c0-0.3-0.1-0.5-0.1-0.8c-0.6,0.1-1.1,0.2-1.7,0.3c0,0.3,0.1,0.5,0.1,0.8
			C67.3,65.6,67.9,65.5,68.4,65.5z"/>
		<path class="st0" d="M67.4,70.8c0-0.3-0.1-0.5-0.1-0.8c-0.6,0-1.1,0.1-1.7,0.3c0.1,0.3,0,0.6,0.2,0.8C66.3,71,66.9,70.9,67.4,70.8
			z"/>
		<path class="st0" d="M69.3,60.4c0-0.3-0.1-0.5-0.1-0.8c-0.6,0.1-1.1,0.2-1.7,0.3c0,0.3,0.1,0.5,0.1,0.8
			C68.2,60.5,68.7,60.5,69.3,60.4z"/>
		<path class="st0" d="M72.7,63.9c-0.3,0-0.5,0.1-0.8,0.2c0,0.3,0.1,0.5,0.1,0.8c0.6-0.1,1.1-0.2,1.7-0.3c0-0.3-0.1-0.5-0.1-0.8
			C73.2,63.8,73,63.9,72.7,63.9z"/>
	</g>
	<g>
		<path class="st1" d="M127.7,27.7c-0.8-0.4-1.5-1-2-1.7s-0.7-1.5-0.7-2.4c0-0.9,0.3-1.7,0.8-2.5c0.5-0.7,1.3-1.3,2.2-1.6
			c0.9-0.4,2-0.6,3.2-0.6c1.2,0,2.3,0.2,3.2,0.6c0.9,0.4,1.7,1,2.2,1.8c0.5,0.8,0.8,1.7,0.8,2.7h-3.6c0-0.7-0.2-1.3-0.7-1.7
			c-0.4-0.4-1.1-0.6-2-0.6c-0.6,0-1,0.1-1.4,0.2c-0.4,0.2-0.7,0.4-0.9,0.7c-0.2,0.3-0.3,0.6-0.3,0.9c0,0.5,0.3,0.9,0.8,1.3
			c0.5,0.4,1.3,0.7,2.5,1.1c1.9,0.6,3.3,1.3,4.2,2.2c0.9,0.9,1.4,2,1.4,3.3c0,1-0.2,1.8-0.7,2.5c-0.5,0.7-1.2,1.2-2.1,1.6
			c-0.9,0.4-2,0.6-3.2,0.6c-1.2,0-2.3-0.2-3.3-0.6c-1-0.4-1.9-1-2.5-1.9c-0.7-0.8-1-1.9-1-3.1h3.6c0,1,0.3,1.6,0.8,2.1
			c0.6,0.4,1.4,0.6,2.4,0.6c0.8,0,1.4-0.2,1.9-0.5c0.4-0.3,0.6-0.8,0.6-1.3c0-0.4-0.1-0.7-0.3-1c-0.2-0.3-0.5-0.5-0.9-0.8
			c-0.5-0.2-1.1-0.5-2-0.8C129.5,28.5,128.6,28.1,127.7,27.7z"/>
		<path class="st1" d="M152.5,22.1h-5.1v13.8h-3.6V22.1h-5v-2.9h13.7V22.1z"/>
		<path class="st1" d="M154.3,32.6c0.3,0.2,0.5,0.4,0.7,0.7c0.2,0.3,0.2,0.6,0.2,0.9c0,0.3-0.1,0.7-0.2,0.9
			c-0.2,0.3-0.4,0.5-0.7,0.7s-0.6,0.2-1,0.2c-0.4,0-0.7-0.1-1-0.2c-0.3-0.2-0.5-0.4-0.7-0.7c-0.2-0.3-0.2-0.6-0.2-0.9
			c0-0.3,0.1-0.7,0.2-0.9c0.2-0.3,0.4-0.5,0.7-0.7c0.3-0.2,0.6-0.2,1-0.2C153.7,32.3,154,32.4,154.3,32.6z"/>
		<path class="st1" d="M173.2,19.2h4.1l-4.8,8.3l4.9,8.4h-4.2l-3.1-5.8l-3.1,5.8h-4.2l4.9-8.4l-4.8-8.3h4.1l3,5.7L173.2,19.2z"/>
		<path class="st1" d="M188.6,32.6h-5.9l-1.1,3.3h-3.8l6.2-16.7h3.4l6.2,16.7h-3.8L188.6,32.6z M187.6,29.6l-2-6.1l-2,6.1H187.6z"/>
		<path class="st1" d="M207.4,19.2l-5.8,16.7h-3.8l-5.7-16.7h4l3.7,12.4l3.7-12.4H207.4z"/>
		<path class="st1" d="M209.1,35.9V19.2h3.6v16.7H209.1z"/>
		<path class="st1" d="M227.1,33v2.9h-11.3V19.2h11.3v2.9h-7.7v3.8h6.5v2.8h-6.5V33H227.1z"/>
		<path class="st1" d="M242.2,35.7v0.2h-3.9l-3.1-6h-2.6v6h-3.6V19.2h6.3c1.3,0,2.4,0.2,3.3,0.6c0.9,0.4,1.6,1,2.1,1.7
			c0.5,0.8,0.7,1.7,0.7,2.8c0,1.2-0.3,2.2-0.8,2.9c-0.5,0.8-1.2,1.3-2.2,1.8L242.2,35.7z M232.7,26.9h2.7c0.9,0,1.5-0.2,2-0.6
			c0.4-0.4,0.7-1,0.7-1.8c0-0.8-0.2-1.4-0.7-1.8c-0.4-0.4-1.1-0.6-2-0.6h-2.7V26.9z"/>
		<path class="st1" d="M252.6,27.7c-0.8-0.4-1.5-1-2-1.7s-0.7-1.5-0.7-2.4c0-0.9,0.3-1.7,0.8-2.5c0.5-0.7,1.3-1.3,2.2-1.6
			c0.9-0.4,2-0.6,3.2-0.6c1.2,0,2.3,0.2,3.2,0.6c0.9,0.4,1.7,1,2.2,1.8c0.5,0.8,0.8,1.7,0.8,2.7h-3.6c0-0.7-0.2-1.3-0.7-1.7
			c-0.4-0.4-1.1-0.6-2-0.6c-0.6,0-1,0.1-1.4,0.2c-0.4,0.2-0.7,0.4-0.9,0.7c-0.2,0.3-0.3,0.6-0.3,0.9c0,0.5,0.3,0.9,0.8,1.3
			c0.5,0.4,1.3,0.7,2.5,1.1c1.9,0.6,3.3,1.3,4.2,2.2c0.9,0.9,1.4,2,1.4,3.3c0,1-0.2,1.8-0.7,2.5c-0.5,0.7-1.2,1.2-2.1,1.6
			c-0.9,0.4-2,0.6-3.2,0.6c-1.2,0-2.3-0.2-3.3-0.6c-1-0.4-1.9-1-2.5-1.9c-0.7-0.8-1-1.9-1-3.1h3.6c0,1,0.3,1.6,0.8,2.1
			c0.6,0.4,1.4,0.6,2.4,0.6c0.8,0,1.4-0.2,1.9-0.5c0.4-0.3,0.6-0.8,0.6-1.3c0-0.4-0.1-0.7-0.3-1c-0.2-0.3-0.5-0.5-0.9-0.8
			c-0.5-0.2-1.1-0.5-2-0.8C254.4,28.5,253.4,28.1,252.6,27.7z"/>
		<path class="st1" d="M276.9,33.3c-0.6,0.9-1.3,1.6-2.3,2.1c-1,0.5-2.2,0.7-3.5,0.7c-1.4,0-2.7-0.3-3.7-1c-1-0.7-1.9-1.6-2.4-2.8
			c-0.6-1.2-0.8-2.6-0.8-4.3v-1c0-1.6,0.3-3.1,0.9-4.3c0.6-1.2,1.4-2.2,2.4-2.8c1-0.7,2.3-1,3.7-1c1.4,0,2.5,0.3,3.5,0.8
			c1,0.5,1.7,1.2,2.3,2.1c0.5,0.9,0.9,1.9,1,3.1h-3.6c-0.1-1-0.3-1.8-0.8-2.3c-0.5-0.5-1.3-0.7-2.3-0.7c-1.1,0-2,0.4-2.5,1.2
			c-0.5,0.8-0.8,2.1-0.8,3.9v1c0,1.2,0.1,2.2,0.3,2.9c0.2,0.7,0.6,1.3,1.1,1.7c0.5,0.4,1.1,0.6,1.9,0.6c1,0,1.8-0.2,2.3-0.7
			c0.5-0.5,0.8-1.2,0.9-2.2h3.6C277.8,31.4,277.4,32.4,276.9,33.3z"/>
		<path class="st1" d="M293.7,19.2v16.7h-3.6v-7.1h-6.5v7.1H280V19.2h3.6v6.7h6.5v-6.7H293.7z"/>
		<path class="st1" d="M309.6,32.3c-0.6,1.2-1.4,2.2-2.5,2.9c-1.1,0.7-2.3,1-3.7,1c-1.4,0-2.7-0.3-3.7-1c-1.1-0.7-1.9-1.6-2.5-2.9
			c-0.6-1.2-0.9-2.7-0.9-4.4v-0.7c0-1.7,0.3-3.1,0.9-4.4s1.4-2.2,2.5-2.9c1.1-0.7,2.3-1,3.7-1c1.4,0,2.7,0.3,3.7,1s1.9,1.6,2.5,2.9
			s0.9,2.7,0.9,4.4v0.7C310.5,29.6,310.2,31,309.6,32.3z M305.9,23.2c-0.6-0.9-1.5-1.4-2.6-1.4c-1.1,0-2,0.4-2.6,1.3
			c-0.6,0.9-0.9,2.2-0.9,3.9v0.7c0,1.7,0.3,3,0.9,3.9c0.6,0.9,1.5,1.4,2.6,1.4c1.1,0,2-0.5,2.6-1.4c0.6-0.9,0.9-2.2,0.9-3.9v-0.7
			C306.8,25.4,306.5,24.1,305.9,23.2z"/>
		<path class="st1" d="M325.8,32.3c-0.6,1.2-1.4,2.2-2.5,2.9c-1.1,0.7-2.3,1-3.7,1c-1.4,0-2.7-0.3-3.7-1c-1.1-0.7-1.9-1.6-2.5-2.9
			c-0.6-1.2-0.9-2.7-0.9-4.4v-0.7c0-1.7,0.3-3.1,0.9-4.4s1.4-2.2,2.5-2.9c1.1-0.7,2.3-1,3.7-1c1.4,0,2.7,0.3,3.7,1s1.9,1.6,2.5,2.9
			s0.9,2.7,0.9,4.4v0.7C326.7,29.6,326.4,31,325.8,32.3z M322.2,23.2c-0.6-0.9-1.5-1.4-2.6-1.4c-1.1,0-2,0.4-2.6,1.3
			c-0.6,0.9-0.9,2.2-0.9,3.9v0.7c0,1.7,0.3,3,0.9,3.9c0.6,0.9,1.5,1.4,2.6,1.4c1.1,0,2-0.5,2.6-1.4c0.6-0.9,0.9-2.2,0.9-3.9v-0.7
			C323.1,25.4,322.8,24.1,322.2,23.2z"/>
		<path class="st1" d="M340,33v2.9h-10.8V19.2h3.6V33H340z"/>
	</g>
	<g>
		<path class="st1" d="M134.2,58.2c-0.4,0.6-0.9,1.1-1.6,1.4c-0.7,0.3-1.5,0.5-2.4,0.5c-1,0-1.8-0.2-2.6-0.7
			c-0.7-0.5-1.3-1.1-1.7-1.9c-0.4-0.8-0.6-1.8-0.6-3v-0.7c0-1.1,0.2-2.1,0.6-3c0.4-0.8,1-1.5,1.7-1.9c0.7-0.5,1.6-0.7,2.5-0.7
			c0.9,0,1.8,0.2,2.4,0.5c0.7,0.3,1.2,0.8,1.6,1.4c0.4,0.6,0.6,1.3,0.7,2.1h-2.5c0-0.7-0.2-1.2-0.6-1.6c-0.3-0.3-0.9-0.5-1.6-0.5
			c-0.8,0-1.4,0.3-1.7,0.9c-0.4,0.6-0.6,1.5-0.6,2.7v0.7c0,0.8,0.1,1.5,0.2,2c0.2,0.5,0.4,0.9,0.7,1.2c0.3,0.3,0.8,0.4,1.3,0.4
			c0.7,0,1.2-0.2,1.6-0.5c0.4-0.3,0.6-0.8,0.6-1.5h2.5C134.8,56.9,134.6,57.6,134.2,58.2z"/>
		<path class="st1" d="M145.8,48.5V60h-2.5v-4.9h-4.5V60h-2.5V48.5h2.5v4.6h4.5v-4.6H145.8z"/>
		<path class="st1" d="M154.4,57.7h-4.1l-0.8,2.3h-2.6l4.3-11.5h2.3l4.3,11.5h-2.7L154.4,57.7z M153.7,55.7l-1.4-4.2l-1.4,4.2H153.7
			z"/>
		<path class="st1" d="M165.8,60l-4.5-7.4V60h-2.5V48.5h2.5l4.5,7.4v-7.4h2.5V60H165.8z"/>
		<path class="st1" d="M176.6,49.1c0.8,0.5,1.4,1.1,1.9,1.9c0.4,0.8,0.7,1.8,0.7,2.9v0.5c0,1.1-0.2,2-0.7,2.9
			c-0.4,0.8-1.1,1.5-1.9,1.9c-0.8,0.5-1.7,0.7-2.8,0.7h-3.6V48.5h3.6C174.9,48.5,175.8,48.7,176.6,49.1z M176.6,54
			c0-1.1-0.2-2-0.7-2.6c-0.5-0.6-1.2-0.9-2.1-0.9h-1.1V58h1.1c0.9,0,1.6-0.3,2.1-0.9c0.5-0.6,0.7-1.5,0.7-2.6V54z"/>
		<path class="st1" d="M181,60V48.5h2.5V60H181z"/>
		<path class="st1" d="M193.9,59.3c-0.4,0.2-0.9,0.4-1.5,0.6s-1.3,0.2-2.1,0.2c-1,0-1.9-0.2-2.6-0.7s-1.3-1.1-1.8-1.9
			c-0.4-0.8-0.6-1.8-0.6-3v-0.7c0-1.2,0.2-2.2,0.6-3s1-1.5,1.7-1.9c0.7-0.4,1.6-0.7,2.6-0.7c1.5,0,2.6,0.3,3.3,1
			c0.7,0.7,1.2,1.6,1.3,2.8h-2.4c-0.1-0.6-0.3-1.1-0.6-1.4c-0.3-0.3-0.8-0.5-1.5-0.5c-0.8,0-1.4,0.3-1.8,0.9
			c-0.4,0.6-0.6,1.5-0.6,2.7v0.7c0,1.2,0.2,2.1,0.7,2.7c0.4,0.6,1.1,0.9,2,0.9c0.8,0,1.5-0.2,1.8-0.5v-1.9h-2.1v-1.8h4.6v4.7
			C194.6,58.8,194.3,59,193.9,59.3z"/>
		<path class="st1" d="M203.2,57.7h-4.1l-0.8,2.3h-2.6l4.3-11.5h2.3l4.3,11.5H204L203.2,57.7z M202.5,55.7l-1.4-4.2l-1.4,4.2H202.5z
			"/>
		<path class="st1" d="M216.7,59.9V60H214l-2.1-4.2h-1.8V60h-2.5V48.5h4.4c0.9,0,1.7,0.1,2.3,0.4c0.6,0.3,1.1,0.7,1.5,1.2
			c0.3,0.5,0.5,1.2,0.5,1.9c0,0.8-0.2,1.5-0.5,2c-0.4,0.5-0.9,0.9-1.5,1.2L216.7,59.9z M210.1,53.8h1.9c0.6,0,1-0.1,1.3-0.4
			c0.3-0.3,0.5-0.7,0.5-1.2c0-0.5-0.2-0.9-0.5-1.2c-0.3-0.3-0.8-0.4-1.4-0.4h-1.9V53.8z"/>
		<path class="st1" d="M227.5,48.5V60H225v-4.9h-4.5V60h-2.5V48.5h2.5v4.6h4.5v-4.6H227.5z"/>
	</g>
</g>
</svg>
