<?xml version="1.0" encoding="iso-8859-1"?>
<!-- Generator: Adobe Illustrator 16.0.0, SVG Export Plug-In . SVG Version: 6.00 Build 0)  -->
<!DOCTYPE svg PUBLIC "-//W3C//DTD SVG 1.1//EN" "http://www.w3.org/Graphics/SVG/1.1/DTD/svg11.dtd">
<svg xmlns="http://www.w3.org/2000/svg" xmlns:xlink="http://www.w3.org/1999/xlink" version="1.1" id="Capa_1" x="0px" y="0px" width="512px" height="512px" viewBox="0 0 61.994 61.994" style="enable-background:new 0 0 61.994 61.994;" xml:space="preserve">
<g>
	<g>
		<path d="M54.987,23.789l-0.031-0.112c-0.026-0.193-0.07-0.38-0.135-0.572l-0.064-0.192l-0.046-0.099    c-0.103-0.222-0.222-0.418-0.358-0.597l-0.033-0.068L33.049,0.884c-0.247-0.248-0.536-0.446-0.899-0.613l-0.253-0.094    c-0.187-0.064-0.378-0.109-0.581-0.137L31.169,0H17C11.485,0,6.999,4.485,6.999,10v41.994c0,5.514,4.486,10,10.001,10h27.995    c5.515,0,10-4.484,10-10V24.073L54.987,23.789z M48.993,51.993c0,2.203-1.793,3.997-3.998,3.997H17    c-2.205,0-3.999-1.794-3.999-3.997V9.999C13.001,7.794,14.795,6,17,6h10.921v11.072c0,5.514,4.484,10.001,10,10.001h11.072V51.993    z" fill="#FFFFFF"/>
		<path d="M24.022,34.112c0,1.291,1.046,2.337,2.337,2.337h17.139c1.292,0,2.337-1.047,2.337-2.337s-1.046-2.337-2.337-2.337H26.36    C25.069,31.775,24.022,32.822,24.022,34.112z" fill="#FFFFFF"/>
		<path d="M43.498,38.008H26.36c-1.291,0-2.337,1.047-2.337,2.336c0,1.291,1.046,2.338,2.337,2.338h17.139    c1.292,0,2.337-1.047,2.337-2.338C45.836,39.055,44.79,38.008,43.498,38.008z" fill="#FFFFFF"/>
		<path d="M43.498,44.24H26.36c-1.291,0-2.337,1.047-2.337,2.337c0,1.291,1.046,2.337,2.337,2.337h17.139    c1.292,0,2.337-1.047,2.337-2.337C45.836,45.286,44.79,44.24,43.498,44.24z" fill="#FFFFFF"/>
		<path d="M19.932,31.775h-0.845c-1.291,0-2.337,1.047-2.337,2.337c0,1.291,1.046,2.337,2.337,2.337h0.845    c1.291,0,2.337-1.047,2.337-2.337S21.223,31.775,19.932,31.775z" fill="#FFFFFF"/>
		<path d="M19.932,38.008h-0.845c-1.291,0-2.337,1.047-2.337,2.336c0,1.291,1.046,2.338,2.337,2.338h0.845    c1.291,0,2.337-1.047,2.337-2.338C22.269,39.055,21.223,38.008,19.932,38.008z" fill="#FFFFFF"/>
		<path d="M19.932,44.24h-0.845c-1.291,0-2.337,1.047-2.337,2.337c0,1.291,1.046,2.337,2.337,2.337h0.845    c1.291,0,2.337-1.047,2.337-2.337C22.269,45.286,21.223,44.24,19.932,44.24z" fill="#FFFFFF"/>
	</g>
</g>
<g>
</g>
<g>
</g>
<g>
</g>
<g>
</g>
<g>
</g>
<g>
</g>
<g>
</g>
<g>
</g>
<g>
</g>
<g>
</g>
<g>
</g>
<g>
</g>
<g>
</g>
<g>
</g>
<g>
</g>
</svg>
