<?xml version="1.0" encoding="iso-8859-1"?>
<svg xmlns="http://www.w3.org/2000/svg" xmlns:xlink="http://www.w3.org/1999/xlink" version="1.1" viewBox="0 0 18.631 18.631" enable-background="new 0 0 18.631 18.631" width="512px" height="512px">
  <g>
    <g>
      <path fill="#FFFFFF" fill-rule="evenodd" d="m17.783,3.387h-16.935c-0.469,0-0.848,0.379-0.848,0.848v10.161c0,0.469 0.379,0.848 0.848,0.848h16.935c0.469,0 0.848-0.379 0.848-0.848v-10.161c3.55271e-15-0.469-0.379-0.848-0.848-0.848zm-.844,10.163h-15.244v-8.47h15.243v8.47zm-10.102-1.401c0.004,0.016 0.007,0.032 0.014,0.048 0.014,0.029 0.014,0.059 0.027,0.086 0.038,0.067 0.093,0.116 0.145,0.169 0,0 0,0.002 0.003,0.002 0.155,0.158 0.355,0.241 0.568,0.243 0.01,0 0.017,0.005 0.027,0.005 0.007,0 0.01-0.002 0.014-0.002 0.059-0.004 0.114-0.019 0.169-0.035 0.093-0.022 0.176-0.053 0.255-0.102l4.1-2.446c0.173-0.066 0.331-0.185 0.434-0.363 0.031-0.059 0.041-0.124 0.059-0.188 0.01-0.024 0.017-0.047 0.024-0.071 0.014-0.06 0.014-0.121 0.014-0.181 0-0.062 0-0.12-0.014-0.181-0.007-0.026-0.014-0.048-0.024-0.071-0.016-0.062-0.026-0.128-0.057-0.186-0.103-0.181-0.262-0.298-0.434-0.363l-4.1-2.447c-0.08-0.048-0.163-0.081-0.255-0.102-0.056-0.015-0.111-0.031-0.169-0.034-0.004,0-0.007-0.002-0.014-0.002-0.01,0-0.017,0.005-0.027,0.005-0.214,0.002-0.414,0.085-0.569,0.242-0.004,0.001-0.004,0.003-0.004,0.003-0.051,0.053-0.106,0.102-0.144,0.169-0.014,0.027-0.014,0.057-0.028,0.086-0.007,0.015-0.01,0.031-0.014,0.046-0.034,0.092-0.055,0.181-0.055,0.273 0,0.008-0.007,0.016-0.007,0.022v5.081c0,0.008 0.007,0.016 0.007,0.022 0,0.093 0.021,0.183 0.055,0.272zm1.633-3.871l1.737,1.037-1.737,1.036v-2.073z"/>
    </g>
  </g>
</svg>
