<?xml version="1.0" encoding="utf-8"?>
<!-- Generator: Adobe Illustrator 21.0.0, SVG Export Plug-In . SVG Version: 6.00 Build 0)  -->
<svg version="1.1" id="Layer_1" xmlns="http://www.w3.org/2000/svg" xmlns:xlink="http://www.w3.org/1999/xlink" x="0px" y="0px"
	 viewBox="0 0 24 24" style="enable-background:new 0 0 24 24;" xml:space="preserve">
<style type="text/css">
	.st0{fill:none;}
	.st1{fill:#0D53FF;}
</style>
<rect class="st0" width="24" height="24"/>
<path class="st0" d="M26-1h18v18H26V-1z"/>
<path class="st1" d="M19,3H5C3.9,3,3,3.9,3,5v14c0,1.1,0.9,2,2,2h14c1.1,0,2-0.9,2-2V5C21,3.9,20.1,3,19,3z M8.1,18.8H5.2v-2.8
	l8.3-8.3l2.8,2.8L8.1,18.8z M18.5,8.3l-1.4,1.4l-2.8-2.8l1.4-1.4c0.3-0.3,0.8-0.3,1.1,0l1.8,1.8C18.8,7.5,18.8,8,18.5,8.3z"/>
</svg>
